<svg width="554" height="132" viewBox="0 0 554 132" fill="none" xmlns="http://www.w3.org/2000/svg">
<g filter="url(#filter0_bd)">
<path d="M81.44 10.76L80.292 23.716H56.84V119H29.616V23.716H5.344V10.76H81.44ZM136.429 93.416C139.271 94.728 140.693 97.4067 140.693 101.452C140.693 105.935 139.217 109.761 136.265 112.932C133.313 116.103 129.486 118.508 124.785 120.148C120.193 121.788 115.437 122.608 110.517 122.608C97.3967 122.608 87.4474 118.617 80.6687 110.636C73.9994 102.655 70.6647 91.7213 70.6647 77.836C70.6647 63.5133 74.2727 52.3067 81.4887 44.216C88.814 36.1253 99.3647 32.08 113.141 32.08C121.997 32.08 129.322 34.1027 135.117 38.148C140.911 42.1933 143.809 48.152 143.809 56.024C143.809 65.7547 140.365 72.4787 133.477 76.196C126.589 79.9133 117.186 81.772 105.269 81.772C101.551 81.772 98.654 81.608 96.5767 81.28C96.9047 89.0427 98.3807 95.1653 101.005 99.648C103.738 104.131 108.275 106.372 114.617 106.372C119.318 106.372 123.582 105.279 127.409 103.092C131.345 100.796 134.351 97.5707 136.429 93.416ZM110.681 41.756C105.433 41.756 101.77 44.9813 99.6927 51.432C97.7247 57.7733 96.686 65.208 96.5767 73.736H99.8567C106.745 73.8453 111.938 72.588 115.437 69.964C119.045 67.34 120.849 62.8573 120.849 56.516C120.849 52.3613 119.974 48.8627 118.225 46.02C116.585 43.1773 114.07 41.756 110.681 41.756ZM185.144 41.92C176.179 41.92 171.696 53.4547 171.696 76.524C171.696 85.708 172.954 92.9787 175.468 98.336C177.983 103.693 182.739 106.372 189.736 106.372C194.328 106.372 198.21 105.169 201.38 102.764C204.66 100.359 207.066 96.9693 208.596 92.596C210.455 93.252 211.876 94.3453 212.86 95.876C213.844 97.2973 214.336 98.992 214.336 100.96C214.336 105.552 212.97 109.488 210.236 112.768C207.503 115.939 203.95 118.344 199.576 119.984C195.203 121.733 190.556 122.608 185.636 122.608C172.516 122.608 162.567 118.617 155.788 110.636C149.119 102.655 145.784 91.7213 145.784 77.836C145.784 63.6227 149.338 52.4707 156.444 44.38C163.551 36.18 173.938 32.08 187.604 32.08C195.914 32.08 202.747 33.6653 208.104 36.836C213.571 39.8973 216.304 44.872 216.304 51.76C216.304 55.9147 214.828 59.0307 211.876 61.108C208.924 63.1853 205.152 64.224 200.56 64.224C199.248 64.224 197.827 64.1147 196.296 63.896C194.875 63.568 193.782 63.1307 193.016 62.584C193.672 59.304 194 56.7347 194 54.876C194 46.2387 191.048 41.92 185.144 41.92ZM247.56 20.6C247.56 31.752 247.014 39.6787 245.92 44.38C248.435 40.2253 251.715 37.164 255.76 35.196C259.915 33.1187 264.562 32.08 269.7 32.08C279.212 32.08 285.991 34.6493 290.036 39.788C294.082 44.8173 296.104 52.5253 296.104 62.912V102.6C296.104 105.661 296.487 108.34 297.252 110.636C298.018 112.932 299.33 114.955 301.188 116.704C299.986 118.235 298.127 119.383 295.612 120.148C293.207 121.023 290.802 121.46 288.396 121.46C282.711 121.46 278.392 120.039 275.44 117.196C272.488 114.244 271.012 109.925 271.012 104.24V64.224C271.012 57.8827 270.356 53.0173 269.044 49.628C267.842 46.2387 265.054 44.544 260.68 44.544C255.323 44.544 251.77 47.004 250.02 51.924C248.38 56.844 247.56 63.3493 247.56 71.44V119H222.468V4.19999L247.56 1.576V20.6ZM307.651 11.744C321.646 10.5413 334.547 9.94 346.355 9.94C362.974 9.94 375.219 14.4227 383.091 23.388C390.963 32.3533 394.899 45.528 394.899 62.912C394.899 81.3893 390.635 95.6573 382.107 105.716C373.688 115.665 360.787 120.64 343.403 120.64C332.142 120.64 320.224 119.875 307.651 118.344V11.744ZM344.551 108.832C353.188 108.832 358.928 104.841 361.771 96.86C364.614 88.8787 366.035 78.0547 366.035 64.388C366.035 51.924 364.614 41.756 361.771 33.884C359.038 25.9027 353.735 21.912 345.863 21.912C342.474 21.912 338.811 22.24 334.875 22.896V107.684C337.936 108.449 341.162 108.832 344.551 108.832ZM461.361 10.76V23.716H429.053V56.844H456.441V69.964H429.053V106.044H463.657L462.509 119H401.829V10.76H461.361ZM548.325 10.76L518.969 119H485.677L459.437 10.76H487.153L506.997 102.928L526.349 10.76H548.325Z" fill="url(#paint0_linear)"/>
<path d="M81.44 10.76L80.292 23.716H56.84V119H29.616V23.716H5.344V10.76H81.44ZM136.429 93.416C139.271 94.728 140.693 97.4067 140.693 101.452C140.693 105.935 139.217 109.761 136.265 112.932C133.313 116.103 129.486 118.508 124.785 120.148C120.193 121.788 115.437 122.608 110.517 122.608C97.3967 122.608 87.4474 118.617 80.6687 110.636C73.9994 102.655 70.6647 91.7213 70.6647 77.836C70.6647 63.5133 74.2727 52.3067 81.4887 44.216C88.814 36.1253 99.3647 32.08 113.141 32.08C121.997 32.08 129.322 34.1027 135.117 38.148C140.911 42.1933 143.809 48.152 143.809 56.024C143.809 65.7547 140.365 72.4787 133.477 76.196C126.589 79.9133 117.186 81.772 105.269 81.772C101.551 81.772 98.654 81.608 96.5767 81.28C96.9047 89.0427 98.3807 95.1653 101.005 99.648C103.738 104.131 108.275 106.372 114.617 106.372C119.318 106.372 123.582 105.279 127.409 103.092C131.345 100.796 134.351 97.5707 136.429 93.416ZM110.681 41.756C105.433 41.756 101.77 44.9813 99.6927 51.432C97.7247 57.7733 96.686 65.208 96.5767 73.736H99.8567C106.745 73.8453 111.938 72.588 115.437 69.964C119.045 67.34 120.849 62.8573 120.849 56.516C120.849 52.3613 119.974 48.8627 118.225 46.02C116.585 43.1773 114.07 41.756 110.681 41.756ZM185.144 41.92C176.179 41.92 171.696 53.4547 171.696 76.524C171.696 85.708 172.954 92.9787 175.468 98.336C177.983 103.693 182.739 106.372 189.736 106.372C194.328 106.372 198.21 105.169 201.38 102.764C204.66 100.359 207.066 96.9693 208.596 92.596C210.455 93.252 211.876 94.3453 212.86 95.876C213.844 97.2973 214.336 98.992 214.336 100.96C214.336 105.552 212.97 109.488 210.236 112.768C207.503 115.939 203.95 118.344 199.576 119.984C195.203 121.733 190.556 122.608 185.636 122.608C172.516 122.608 162.567 118.617 155.788 110.636C149.119 102.655 145.784 91.7213 145.784 77.836C145.784 63.6227 149.338 52.4707 156.444 44.38C163.551 36.18 173.938 32.08 187.604 32.08C195.914 32.08 202.747 33.6653 208.104 36.836C213.571 39.8973 216.304 44.872 216.304 51.76C216.304 55.9147 214.828 59.0307 211.876 61.108C208.924 63.1853 205.152 64.224 200.56 64.224C199.248 64.224 197.827 64.1147 196.296 63.896C194.875 63.568 193.782 63.1307 193.016 62.584C193.672 59.304 194 56.7347 194 54.876C194 46.2387 191.048 41.92 185.144 41.92ZM247.56 20.6C247.56 31.752 247.014 39.6787 245.92 44.38C248.435 40.2253 251.715 37.164 255.76 35.196C259.915 33.1187 264.562 32.08 269.7 32.08C279.212 32.08 285.991 34.6493 290.036 39.788C294.082 44.8173 296.104 52.5253 296.104 62.912V102.6C296.104 105.661 296.487 108.34 297.252 110.636C298.018 112.932 299.33 114.955 301.188 116.704C299.986 118.235 298.127 119.383 295.612 120.148C293.207 121.023 290.802 121.46 288.396 121.46C282.711 121.46 278.392 120.039 275.44 117.196C272.488 114.244 271.012 109.925 271.012 104.24V64.224C271.012 57.8827 270.356 53.0173 269.044 49.628C267.842 46.2387 265.054 44.544 260.68 44.544C255.323 44.544 251.77 47.004 250.02 51.924C248.38 56.844 247.56 63.3493 247.56 71.44V119H222.468V4.19999L247.56 1.576V20.6ZM307.651 11.744C321.646 10.5413 334.547 9.94 346.355 9.94C362.974 9.94 375.219 14.4227 383.091 23.388C390.963 32.3533 394.899 45.528 394.899 62.912C394.899 81.3893 390.635 95.6573 382.107 105.716C373.688 115.665 360.787 120.64 343.403 120.64C332.142 120.64 320.224 119.875 307.651 118.344V11.744ZM344.551 108.832C353.188 108.832 358.928 104.841 361.771 96.86C364.614 88.8787 366.035 78.0547 366.035 64.388C366.035 51.924 364.614 41.756 361.771 33.884C359.038 25.9027 353.735 21.912 345.863 21.912C342.474 21.912 338.811 22.24 334.875 22.896V107.684C337.936 108.449 341.162 108.832 344.551 108.832ZM461.361 10.76V23.716H429.053V56.844H456.441V69.964H429.053V106.044H463.657L462.509 119H401.829V10.76H461.361ZM548.325 10.76L518.969 119H485.677L459.437 10.76H487.153L506.997 102.928L526.349 10.76H548.325Z" fill="url(#paint1_linear)"/>
<path d="M81.44 10.76L80.292 23.716H56.84V119H29.616V23.716H5.344V10.76H81.44ZM136.429 93.416C139.271 94.728 140.693 97.4067 140.693 101.452C140.693 105.935 139.217 109.761 136.265 112.932C133.313 116.103 129.486 118.508 124.785 120.148C120.193 121.788 115.437 122.608 110.517 122.608C97.3967 122.608 87.4474 118.617 80.6687 110.636C73.9994 102.655 70.6647 91.7213 70.6647 77.836C70.6647 63.5133 74.2727 52.3067 81.4887 44.216C88.814 36.1253 99.3647 32.08 113.141 32.08C121.997 32.08 129.322 34.1027 135.117 38.148C140.911 42.1933 143.809 48.152 143.809 56.024C143.809 65.7547 140.365 72.4787 133.477 76.196C126.589 79.9133 117.186 81.772 105.269 81.772C101.551 81.772 98.654 81.608 96.5767 81.28C96.9047 89.0427 98.3807 95.1653 101.005 99.648C103.738 104.131 108.275 106.372 114.617 106.372C119.318 106.372 123.582 105.279 127.409 103.092C131.345 100.796 134.351 97.5707 136.429 93.416ZM110.681 41.756C105.433 41.756 101.77 44.9813 99.6927 51.432C97.7247 57.7733 96.686 65.208 96.5767 73.736H99.8567C106.745 73.8453 111.938 72.588 115.437 69.964C119.045 67.34 120.849 62.8573 120.849 56.516C120.849 52.3613 119.974 48.8627 118.225 46.02C116.585 43.1773 114.07 41.756 110.681 41.756ZM185.144 41.92C176.179 41.92 171.696 53.4547 171.696 76.524C171.696 85.708 172.954 92.9787 175.468 98.336C177.983 103.693 182.739 106.372 189.736 106.372C194.328 106.372 198.21 105.169 201.38 102.764C204.66 100.359 207.066 96.9693 208.596 92.596C210.455 93.252 211.876 94.3453 212.86 95.876C213.844 97.2973 214.336 98.992 214.336 100.96C214.336 105.552 212.97 109.488 210.236 112.768C207.503 115.939 203.95 118.344 199.576 119.984C195.203 121.733 190.556 122.608 185.636 122.608C172.516 122.608 162.567 118.617 155.788 110.636C149.119 102.655 145.784 91.7213 145.784 77.836C145.784 63.6227 149.338 52.4707 156.444 44.38C163.551 36.18 173.938 32.08 187.604 32.08C195.914 32.08 202.747 33.6653 208.104 36.836C213.571 39.8973 216.304 44.872 216.304 51.76C216.304 55.9147 214.828 59.0307 211.876 61.108C208.924 63.1853 205.152 64.224 200.56 64.224C199.248 64.224 197.827 64.1147 196.296 63.896C194.875 63.568 193.782 63.1307 193.016 62.584C193.672 59.304 194 56.7347 194 54.876C194 46.2387 191.048 41.92 185.144 41.92ZM247.56 20.6C247.56 31.752 247.014 39.6787 245.92 44.38C248.435 40.2253 251.715 37.164 255.76 35.196C259.915 33.1187 264.562 32.08 269.7 32.08C279.212 32.08 285.991 34.6493 290.036 39.788C294.082 44.8173 296.104 52.5253 296.104 62.912V102.6C296.104 105.661 296.487 108.34 297.252 110.636C298.018 112.932 299.33 114.955 301.188 116.704C299.986 118.235 298.127 119.383 295.612 120.148C293.207 121.023 290.802 121.46 288.396 121.46C282.711 121.46 278.392 120.039 275.44 117.196C272.488 114.244 271.012 109.925 271.012 104.24V64.224C271.012 57.8827 270.356 53.0173 269.044 49.628C267.842 46.2387 265.054 44.544 260.68 44.544C255.323 44.544 251.77 47.004 250.02 51.924C248.38 56.844 247.56 63.3493 247.56 71.44V119H222.468V4.19999L247.56 1.576V20.6ZM307.651 11.744C321.646 10.5413 334.547 9.94 346.355 9.94C362.974 9.94 375.219 14.4227 383.091 23.388C390.963 32.3533 394.899 45.528 394.899 62.912C394.899 81.3893 390.635 95.6573 382.107 105.716C373.688 115.665 360.787 120.64 343.403 120.64C332.142 120.64 320.224 119.875 307.651 118.344V11.744ZM344.551 108.832C353.188 108.832 358.928 104.841 361.771 96.86C364.614 88.8787 366.035 78.0547 366.035 64.388C366.035 51.924 364.614 41.756 361.771 33.884C359.038 25.9027 353.735 21.912 345.863 21.912C342.474 21.912 338.811 22.24 334.875 22.896V107.684C337.936 108.449 341.162 108.832 344.551 108.832ZM461.361 10.76V23.716H429.053V56.844H456.441V69.964H429.053V106.044H463.657L462.509 119H401.829V10.76H461.361ZM548.325 10.76L518.969 119H485.677L459.437 10.76H487.153L506.997 102.928L526.349 10.76H548.325Z" fill="url(#paint2_linear)"/>
<path d="M81.44 10.76L82.4361 10.8483L82.5325 9.76H81.44V10.76ZM80.292 23.716V24.716H81.2073L81.2881 23.8043L80.292 23.716ZM56.84 23.716V22.716H55.84V23.716H56.84ZM56.84 119V120H57.84V119H56.84ZM29.616 119H28.616V120H29.616V119ZM29.616 23.716H30.616V22.716H29.616V23.716ZM5.344 23.716H4.344V24.716H5.344V23.716ZM5.344 10.76V9.76H4.344V10.76H5.344ZM80.4439 10.6717L79.2959 23.6277L81.2881 23.8043L82.4361 10.8483L80.4439 10.6717ZM80.292 22.716H56.84V24.716H80.292V22.716ZM55.84 23.716V119H57.84V23.716H55.84ZM56.84 118H29.616V120H56.84V118ZM30.616 119V23.716H28.616V119H30.616ZM29.616 22.716H5.344V24.716H29.616V22.716ZM6.344 23.716V10.76H4.344V23.716H6.344ZM5.344 11.76H81.44V9.76H5.344V11.76ZM136.429 93.416L136.848 92.508L135.968 92.1019L135.534 92.9688L136.429 93.416ZM136.265 112.932L135.533 112.251L135.533 112.251L136.265 112.932ZM124.785 120.148L124.455 119.204L124.448 119.206L124.785 120.148ZM80.6687 110.636L79.9013 111.277L79.9065 111.283L80.6687 110.636ZM81.4887 44.216L80.7474 43.5448L80.7424 43.5504L81.4887 44.216ZM133.477 76.196L133.952 77.076L133.952 77.076L133.477 76.196ZM96.5767 81.28L96.7326 80.2922L95.526 80.1017L95.5776 81.3222L96.5767 81.28ZM101.005 99.648L100.142 100.153L100.146 100.161L100.151 100.169L101.005 99.648ZM127.409 103.092L127.905 103.96L127.913 103.956L127.409 103.092ZM99.6927 51.432L98.7408 51.1254L98.7376 51.1356L99.6927 51.432ZM96.5767 73.736L95.5768 73.7232L95.5638 74.736H96.5767V73.736ZM99.8567 73.736L99.8726 72.7361L99.8646 72.736H99.8567V73.736ZM115.437 69.964L114.849 69.1553L114.843 69.1596L114.837 69.164L115.437 69.964ZM118.225 46.02L117.359 46.5197L117.366 46.532L117.373 46.5441L118.225 46.02ZM136.01 94.324C137.239 94.8915 138.139 95.7383 138.743 96.8777C139.356 98.0326 139.693 99.5403 139.693 101.452H141.693C141.693 99.3183 141.319 97.4641 140.51 95.9403C139.693 94.401 138.461 93.2525 136.848 92.508L136.01 94.324ZM139.693 101.452C139.693 105.692 138.306 109.272 135.533 112.251L136.997 113.613C140.127 110.251 141.693 106.178 141.693 101.452H139.693ZM135.533 112.251C132.707 115.286 129.026 117.609 124.455 119.204L125.114 121.092C129.946 119.407 133.918 116.92 136.997 113.613L135.533 112.251ZM124.448 119.206C119.965 120.807 115.323 121.608 110.517 121.608V123.608C115.55 123.608 120.42 122.769 125.121 121.09L124.448 119.206ZM110.517 121.608C97.6097 121.608 87.973 117.691 81.4309 109.989L79.9065 111.283C86.9217 119.543 97.1837 123.608 110.517 123.608V121.608ZM81.436 109.995C74.9609 102.246 71.6647 91.5659 71.6647 77.836H69.6647C69.6647 91.8767 73.0378 103.063 79.9013 111.277L81.436 109.995ZM71.6647 77.836C71.6647 63.6785 75.2289 52.7369 82.235 44.8816L80.7424 43.5504C73.3164 51.8765 69.6647 63.3482 69.6647 77.836H71.6647ZM82.23 44.8872C89.3184 37.0582 99.5679 33.08 113.141 33.08V31.08C99.1615 31.08 88.3097 35.1925 80.7474 43.5448L82.23 44.8872ZM113.141 33.08C121.844 33.08 128.956 35.0665 134.544 38.968L135.689 37.328C129.688 33.1388 122.149 31.08 113.141 31.08V33.08ZM134.544 38.968C140.037 42.8027 142.809 48.4354 142.809 56.024H144.809C144.809 47.8686 141.785 41.5839 135.689 37.328L134.544 38.968ZM142.809 56.024C142.809 65.4928 139.483 71.8182 133.002 75.316L133.952 77.076C141.246 73.1391 144.809 66.0166 144.809 56.024H142.809ZM133.002 75.316C126.316 78.924 117.1 80.772 105.269 80.772V82.772C117.273 82.772 126.861 80.9027 133.952 77.076L133.002 75.316ZM105.269 80.772C101.57 80.772 98.7336 80.6082 96.7326 80.2922L96.4207 82.2678C98.5744 82.6078 101.532 82.772 105.269 82.772V80.772ZM95.5776 81.3222C95.9093 89.1736 97.4044 95.4769 100.142 100.153L101.868 99.1428C99.357 94.8537 97.9 88.9118 97.5758 81.2378L95.5776 81.3222ZM100.151 100.169C103.106 105.015 108.011 107.372 114.617 107.372V105.372C108.54 105.372 104.37 103.247 101.858 99.1274L100.151 100.169ZM114.617 107.372C119.48 107.372 123.917 106.239 127.905 103.96L126.913 102.224C123.247 104.318 119.156 105.372 114.617 105.372V107.372ZM127.913 103.956C132.02 101.56 135.161 98.1882 137.323 93.8632L135.534 92.9688C133.542 96.9532 130.669 100.032 126.905 102.228L127.913 103.956ZM110.681 40.756C107.833 40.756 105.365 41.6384 103.337 43.4245C101.328 45.1938 99.8142 47.7923 98.7408 51.1255L100.645 51.7385C101.648 48.621 103.005 46.3815 104.659 44.9255C106.293 43.4863 108.28 42.756 110.681 42.756V40.756ZM98.7376 51.1356C96.7343 57.5906 95.687 65.1248 95.5768 73.7232L97.5766 73.7488C97.685 65.2912 98.715 57.9561 100.648 51.7284L98.7376 51.1356ZM96.5767 74.736H99.8567V72.736H96.5767V74.736ZM99.8408 74.7359C106.831 74.8468 112.284 73.5783 116.037 70.764L114.837 69.164C111.592 71.5977 106.658 72.8438 99.8726 72.7361L99.8408 74.7359ZM116.025 70.7727C119.989 67.8896 121.849 63.0337 121.849 56.516H119.849C119.849 62.681 118.1 66.7904 114.849 69.1553L116.025 70.7727ZM121.849 56.516C121.849 52.2213 120.944 48.5306 119.076 45.4959L117.373 46.5441C119.004 49.1947 119.849 52.5013 119.849 56.516H121.849ZM119.091 45.5203C117.265 42.3557 114.413 40.756 110.681 40.756V42.756C113.727 42.756 115.904 43.9989 117.359 46.5197L119.091 45.5203ZM175.468 98.336L174.563 98.7609L174.563 98.7609L175.468 98.336ZM201.38 102.764L200.789 101.958L200.782 101.962L200.776 101.967L201.38 102.764ZM208.596 92.596L208.929 91.653L207.984 91.3193L207.653 92.2656L208.596 92.596ZM212.86 95.876L212.019 96.4168L212.028 96.4311L212.038 96.4452L212.86 95.876ZM210.236 112.768L210.994 113.421L210.999 113.415L211.005 113.408L210.236 112.768ZM199.576 119.984L199.225 119.048L199.215 119.051L199.205 119.056L199.576 119.984ZM155.788 110.636L155.021 111.277L155.026 111.283L155.788 110.636ZM156.444 44.38L157.196 45.04L157.2 45.0349L156.444 44.38ZM208.104 36.836L207.595 37.6966L207.605 37.7027L207.616 37.7085L208.104 36.836ZM211.876 61.108L212.452 61.9258L212.452 61.9258L211.876 61.108ZM196.296 63.896L196.072 64.8704L196.113 64.8799L196.155 64.8859L196.296 63.896ZM193.016 62.584L192.036 62.3879L191.909 63.0219L192.435 63.3977L193.016 62.584ZM185.144 40.92C182.667 40.92 180.474 41.7243 178.61 43.3237C176.764 44.9067 175.284 47.2293 174.126 50.2088C171.817 56.1522 170.696 64.9536 170.696 76.524H172.696C172.696 65.0251 173.818 56.5244 175.99 50.9332C177.074 48.1454 178.396 46.1424 179.912 44.8418C181.409 43.5575 183.139 42.92 185.144 42.92V40.92ZM170.696 76.524C170.696 85.782 171.961 93.2175 174.563 98.7609L176.374 97.9111C173.946 92.7398 172.696 85.634 172.696 76.524H170.696ZM174.563 98.7609C175.901 101.611 177.856 103.784 180.431 105.234C182.995 106.679 186.113 107.372 189.736 107.372V105.372C186.362 105.372 183.604 104.726 181.412 103.492C179.231 102.263 177.55 100.418 176.374 97.9111L174.563 98.7609ZM189.736 107.372C194.512 107.372 198.614 106.118 201.985 103.561L200.776 101.967C197.805 104.221 194.145 105.372 189.736 105.372V107.372ZM201.972 103.57C205.437 101.03 207.952 97.4629 209.54 92.9263L207.653 92.2656C206.179 96.4758 203.884 99.6878 200.789 101.958L201.972 103.57ZM208.264 93.539C209.931 94.1276 211.166 95.0888 212.019 96.4168L213.702 95.3352C212.587 93.6019 210.979 92.3764 208.929 91.653L208.264 93.539ZM212.038 96.4452C212.891 97.6768 213.336 99.1663 213.336 100.96H215.336C215.336 98.8177 214.798 96.9178 213.683 95.3068L212.038 96.4452ZM213.336 100.96C213.336 105.337 212.04 109.042 209.468 112.128L211.005 113.408C213.899 109.934 215.336 105.767 215.336 100.96H213.336ZM209.479 112.115C206.867 115.145 203.46 117.46 199.225 119.048L199.928 120.92C204.439 119.228 208.139 116.733 210.994 113.421L209.479 112.115ZM199.205 119.056C194.955 120.756 190.435 121.608 185.636 121.608V123.608C190.678 123.608 195.451 122.711 199.948 120.912L199.205 119.056ZM185.636 121.608C172.729 121.608 163.093 117.691 156.551 109.989L155.026 111.283C162.041 119.543 172.303 123.608 185.636 123.608V121.608ZM156.556 109.995C150.081 102.246 146.784 91.5659 146.784 77.836H144.784C144.784 91.8767 148.158 103.063 155.021 111.277L156.556 109.995ZM146.784 77.836C146.784 63.7865 150.295 52.8964 157.196 45.0399L155.693 43.7201C148.381 52.0449 144.784 63.4588 144.784 77.836H146.784ZM157.2 45.0349C164.069 37.1088 174.147 33.08 187.604 33.08V31.08C173.729 31.08 163.033 35.2512 155.689 43.7251L157.2 45.0349ZM187.604 33.08C195.793 33.08 202.435 34.6428 207.595 37.6966L208.614 35.9754C203.059 32.6878 196.035 31.08 187.604 31.08V33.08ZM207.616 37.7085C212.73 40.5725 215.304 45.1901 215.304 51.76H217.304C217.304 44.5539 214.412 39.2221 208.593 35.9635L207.616 37.7085ZM215.304 51.76C215.304 55.6458 213.944 58.4305 211.301 60.2902L212.452 61.9258C215.713 59.6308 217.304 56.1835 217.304 51.76H215.304ZM211.301 60.2902C208.558 62.2203 205.003 63.224 200.56 63.224V65.224C205.302 65.224 209.291 64.1504 212.452 61.9258L211.301 60.2902ZM200.56 63.224C199.303 63.224 197.93 63.1192 196.438 62.906L196.155 64.8859C197.724 65.1102 199.194 65.224 200.56 65.224V63.224ZM196.521 62.9216C195.165 62.6086 194.213 62.2101 193.598 61.7703L192.435 63.3977C193.35 64.0512 194.585 64.5274 196.072 64.8704L196.521 62.9216ZM193.997 62.7801C194.657 59.478 195 56.833 195 54.876H193C193 56.6363 192.687 59.13 192.036 62.3879L193.997 62.7801ZM195 54.876C195 50.4746 194.254 46.9968 192.612 44.5947C190.923 42.1242 188.377 40.92 185.144 40.92V42.92C187.816 42.92 189.697 43.8751 190.961 45.7233C192.271 47.6399 193 50.6401 193 54.876H195ZM245.92 44.38L244.946 44.1535L246.776 44.8978L245.92 44.38ZM255.76 35.196L256.198 36.0953L256.208 36.0904L255.76 35.196ZM290.036 39.788L289.251 40.4066L289.257 40.4148L290.036 39.788ZM297.252 110.636L296.304 110.952L296.304 110.952L297.252 110.636ZM301.188 116.704L301.975 117.322L302.54 116.603L301.874 115.976L301.188 116.704ZM295.612 120.148L295.321 119.191L295.296 119.199L295.271 119.208L295.612 120.148ZM275.44 117.196L274.733 117.903L274.74 117.91L274.747 117.916L275.44 117.196ZM269.044 49.628L268.102 49.9624L268.107 49.9758L268.112 49.989L269.044 49.628ZM250.02 51.924L249.078 51.589L249.075 51.5983L249.072 51.6078L250.02 51.924ZM247.56 119V120H248.56V119H247.56ZM222.468 119H221.468V120H222.468V119ZM222.468 4.19999L222.364 3.20542L221.468 3.29911V4.19999H222.468ZM247.56 1.576H248.56V0.465969L247.456 0.58142L247.56 1.576ZM246.56 20.6C246.56 31.7487 246.011 39.574 244.946 44.1535L246.894 44.6065C248.016 39.7833 248.56 31.7553 248.56 20.6H246.56ZM246.776 44.8978C249.199 40.8942 252.34 37.9723 256.198 36.0952L255.323 34.2968C251.091 36.3557 247.671 39.5565 245.065 43.8622L246.776 44.8978ZM256.208 36.0904C260.209 34.0896 264.7 33.08 269.7 33.08V31.08C264.423 31.08 259.621 32.1477 255.313 34.3016L256.208 36.0904ZM269.7 33.08C279.051 33.08 285.47 35.6034 289.251 40.4066L290.822 39.1694C286.513 33.6953 279.374 31.08 269.7 31.08V33.08ZM289.257 40.4148C293.096 45.1867 295.104 52.6239 295.104 62.912H297.104C297.104 52.4267 295.068 44.448 290.816 39.1612L289.257 40.4148ZM295.104 62.912V102.6H297.104V62.912H295.104ZM295.104 102.6C295.104 105.742 295.497 108.531 296.304 110.952L298.201 110.32C297.477 108.149 297.104 105.581 297.104 102.6H295.104ZM296.304 110.952C297.124 113.414 298.531 115.576 300.503 117.432L301.874 115.976C300.129 114.333 298.911 112.45 298.201 110.32L296.304 110.952ZM300.402 116.086C299.363 117.408 297.707 118.465 295.321 119.191L295.904 121.105C298.547 120.3 300.608 119.061 301.975 117.322L300.402 116.086ZM295.271 119.208C292.968 120.046 290.678 120.46 288.396 120.46V122.46C290.926 122.46 293.446 122 295.954 121.088L295.271 119.208ZM288.396 120.46C282.868 120.46 278.838 119.079 276.134 116.476L274.747 117.916C277.947 120.998 282.554 122.46 288.396 122.46V120.46ZM276.148 116.489C273.443 113.784 272.012 109.759 272.012 104.24H270.012C270.012 110.092 271.534 114.704 274.733 117.903L276.148 116.489ZM272.012 104.24V64.224H270.012V104.24H272.012ZM272.012 64.224C272.012 57.8372 271.355 52.8268 269.977 49.267L268.112 49.989C269.358 53.2078 270.012 57.9282 270.012 64.224H272.012ZM269.987 49.2936C269.317 47.4057 268.182 45.9398 266.571 44.9605C264.976 43.9908 262.99 43.544 260.68 43.544V45.544C262.744 45.544 264.339 45.9445 265.532 46.6695C266.709 47.3849 267.569 48.461 268.102 49.9624L269.987 49.2936ZM260.68 43.544C257.848 43.544 255.408 44.1959 253.428 45.5668C251.446 46.9392 250.008 48.9735 249.078 51.589L250.963 52.259C251.782 49.9545 252.996 48.2988 254.567 47.2112C256.14 46.1221 258.156 45.544 260.68 45.544V43.544ZM249.072 51.6078C247.384 56.6702 246.56 63.295 246.56 71.44H248.56C248.56 63.4036 249.377 57.0178 250.969 52.2402L249.072 51.6078ZM246.56 71.44V119H248.56V71.44H246.56ZM247.56 118H222.468V120H247.56V118ZM223.468 119V4.19999H221.468V119H223.468ZM222.572 5.19457L247.664 2.57057L247.456 0.58142L222.364 3.20542L222.572 5.19457ZM246.56 1.576V20.6H248.56V1.576H246.56ZM307.651 11.744L307.565 10.7477L306.651 10.8262V11.744H307.651ZM383.091 23.388L383.843 22.7282L383.843 22.7282L383.091 23.388ZM382.107 105.716L381.344 105.069L381.344 105.07L382.107 105.716ZM307.651 118.344H306.651V119.23L307.53 119.337L307.651 118.344ZM361.771 96.86L360.829 96.5245L361.771 96.86ZM361.771 33.884L360.825 34.208L360.828 34.2158L360.831 34.2236L361.771 33.884ZM334.875 22.896L334.711 21.9096L333.875 22.0489V22.896H334.875ZM334.875 107.684H333.875V108.465L334.633 108.654L334.875 107.684ZM307.737 12.7403C321.708 11.5397 334.58 10.94 346.355 10.94V8.94C334.514 8.94 321.583 9.543 307.565 10.7477L307.737 12.7403ZM346.355 10.94C362.803 10.94 374.723 15.3735 382.34 24.0478L383.843 22.7282C375.715 13.4718 363.144 8.94 346.355 8.94V10.94ZM382.34 24.0478C389.992 32.7628 393.899 45.662 393.899 62.912H395.899C395.899 45.394 391.934 31.9439 383.843 22.7282L382.34 24.0478ZM393.899 62.912C393.899 81.2466 389.668 95.2521 381.344 105.069L382.87 106.363C391.603 96.0626 395.899 81.5321 395.899 62.912H393.899ZM381.344 105.07C373.173 114.726 360.597 119.64 343.403 119.64V121.64C360.977 121.64 374.203 116.605 382.87 106.362L381.344 105.07ZM343.403 119.64C332.187 119.64 320.31 118.878 307.772 117.351L307.53 119.337C320.139 120.872 332.097 121.64 343.403 121.64V119.64ZM308.651 118.344V11.744H306.651V118.344H308.651ZM344.551 109.832C349.025 109.832 352.832 108.797 355.905 106.66C358.98 104.522 361.237 101.34 362.713 97.1955L360.829 96.5245C359.463 100.361 357.428 103.165 354.763 105.018C352.097 106.872 348.714 107.832 344.551 107.832V109.832ZM362.713 97.1955C365.61 89.0609 367.035 78.1078 367.035 64.388H365.035C365.035 78.0016 363.617 88.6964 360.829 96.5245L362.713 97.1955ZM367.035 64.388C367.035 51.8593 365.608 41.5647 362.712 33.5443L360.831 34.2236C363.62 41.9473 365.035 51.9887 365.035 64.388H367.035ZM362.717 33.56C361.303 29.4313 359.195 26.2505 356.345 24.106C353.49 21.9572 349.974 20.912 345.863 20.912V22.912C349.624 22.912 352.695 23.8621 355.143 25.704C357.596 27.5502 359.506 30.3554 360.825 34.208L362.717 33.56ZM345.863 20.912C342.41 20.912 338.692 21.2461 334.711 21.9096L335.04 23.8824C338.93 23.2339 342.538 22.912 345.863 22.912V20.912ZM333.875 22.896V107.684H335.875V22.896H333.875ZM334.633 108.654C337.779 109.441 341.086 109.832 344.551 109.832V107.832C341.238 107.832 338.094 107.458 335.118 106.714L334.633 108.654ZM461.361 10.76H462.361V9.76H461.361V10.76ZM461.361 23.716V24.716H462.361V23.716H461.361ZM429.053 23.716V22.716H428.053V23.716H429.053ZM429.053 56.844H428.053V57.844H429.053V56.844ZM456.441 56.844H457.441V55.844H456.441V56.844ZM456.441 69.964V70.964H457.441V69.964H456.441ZM429.053 69.964V68.964H428.053V69.964H429.053ZM429.053 106.044H428.053V107.044H429.053V106.044ZM463.657 106.044L464.653 106.132L464.75 105.044H463.657V106.044ZM462.509 119V120H463.425L463.505 119.088L462.509 119ZM401.829 119H400.829V120H401.829V119ZM401.829 10.76V9.76H400.829V10.76H401.829ZM460.361 10.76V23.716H462.361V10.76H460.361ZM461.361 22.716H429.053V24.716H461.361V22.716ZM428.053 23.716V56.844H430.053V23.716H428.053ZM429.053 57.844H456.441V55.844H429.053V57.844ZM455.441 56.844V69.964H457.441V56.844H455.441ZM456.441 68.964H429.053V70.964H456.441V68.964ZM428.053 69.964V106.044H430.053V69.964H428.053ZM429.053 107.044H463.657V105.044H429.053V107.044ZM462.661 105.956L461.513 118.912L463.505 119.088L464.653 106.132L462.661 105.956ZM462.509 118H401.829V120H462.509V118ZM402.829 119V10.76H400.829V119H402.829ZM401.829 11.76H461.361V9.76H401.829V11.76ZM548.325 10.76L549.29 11.0218L549.632 9.76H548.325V10.76ZM518.969 119V120H519.734L519.934 119.262L518.969 119ZM485.677 119L484.705 119.236L484.89 120H485.677V119ZM459.437 10.76V9.76H458.166L458.465 10.9956L459.437 10.76ZM487.153 10.76L488.131 10.5495L487.961 9.76H487.153V10.76ZM506.997 102.928L506.019 103.138L507.976 103.133L506.997 102.928ZM526.349 10.76V9.76H525.537L525.37 10.5545L526.349 10.76ZM547.36 10.4982L518.004 118.738L519.934 119.262L549.29 11.0218L547.36 10.4982ZM518.969 118H485.677V120H518.969V118ZM486.649 118.764L460.409 10.5244L458.465 10.9956L484.705 119.236L486.649 118.764ZM459.437 11.76H487.153V9.76H459.437V11.76ZM486.175 10.9705L506.019 103.138L507.975 102.718L488.131 10.5495L486.175 10.9705ZM507.976 103.133L527.328 10.9655L525.37 10.5545L506.018 102.723L507.976 103.133ZM526.349 11.76H548.325V9.76H526.349V11.76Z" fill="white" fill-opacity="0.53"/>
</g>
<defs>
<filter id="filter0_bd" x="0.344002" y="-3.53403" width="553.288" height="135.142" filterUnits="userSpaceOnUse" color-interpolation-filters="sRGB">
<feFlood flood-opacity="0" result="BackgroundImageFix"/>
<feGaussianBlur in="BackgroundImage" stdDeviation="2"/>
<feComposite in2="SourceAlpha" operator="in" result="effect1_backgroundBlur"/>
<feColorMatrix in="SourceAlpha" type="matrix" values="0 0 0 0 0 0 0 0 0 0 0 0 0 0 0 0 0 0 127 0"/>
<feOffset dy="4"/>
<feGaussianBlur stdDeviation="2"/>
<feColorMatrix type="matrix" values="0 0 0 0 0 0 0 0 0 0 0 0 0 0 0 0 0 0 0.25 0"/>
<feBlend mode="normal" in2="effect1_backgroundBlur" result="effect2_dropShadow"/>
<feBlend mode="normal" in="SourceGraphic" in2="effect2_dropShadow" result="shape"/>
</filter>
<linearGradient id="paint0_linear" x1="282.5" y1="-48" x2="282.5" y2="158" gradientUnits="userSpaceOnUse">
<stop stop-color="#155799"/>
<stop offset="1" stop-color="white" stop-opacity="0"/>
</linearGradient>
<linearGradient id="paint1_linear" x1="282.5" y1="-48" x2="282.5" y2="158" gradientUnits="userSpaceOnUse">
<stop stop-color="#159957"/>
<stop offset="1" stop-color="white" stop-opacity="0"/>
</linearGradient>
<linearGradient id="paint2_linear" x1="282.5" y1="-48" x2="282.5" y2="158" gradientUnits="userSpaceOnUse">
<stop stop-color="#2CA368"/>
<stop offset="1" stop-color="white" stop-opacity="0"/>
</linearGradient>
</defs>
</svg>
