<svg width="500" height="500" viewBox="0 0 500 500" fill="none" xmlns="http://www.w3.org/2000/svg">
<circle cx="250" cy="250" r="200" fill="#FFCAD5" fill-opacity="0.75"/>
<path d="M450 250.5C450 357.367 364.263 444 258.5 444C152.737 444 67 357.367 67 250.5C67 143.633 152.737 57 258.5 57C364.263 57 450 143.633 450 250.5Z" fill="#834E94" fill-opacity="0.3"/>
<g filter="url(#filter0_f)">
<path d="M346.787 178.13H281.02V357H236.781V178.13H171.898V142.297H346.787V178.13Z" fill="#703583" fill-opacity="0.48"/>
</g>
<path d="M202.009 176.67L227.772 144.496L191.311 165.366L202.009 176.67Z" fill="#F3CEFF"/>
<path d="M247.289 155.72L235.579 176.67L263.684 165.366V155.72H247.289Z" fill="#F3CEFF"/>
<path d="M313.649 176.67H348V159.835L336.822 153.956L331.022 159.641L313.649 176.67Z" fill="#F3CEFF"/>
<path d="M283.375 177.253L256.658 202.858C276.644 214.83 281.64 193.879 281.64 181.908C282.104 180.871 282.705 179.231 283.375 177.253Z" fill="#F3CEFF"/>
<path d="M259.089 224.603C259.017 224.58 258.944 224.558 258.872 224.535C256.987 240.786 243.618 253.757 237.14 258.227C240.338 256.933 243.327 255.743 246.118 254.647C270.385 245.122 279.715 242.73 281.085 241.352C283.008 239.416 269.241 239.479 259.089 224.603Z" fill="#F3CEFF"/>
<path d="M265.913 292.645L252.967 318.192L271.283 313.596L265.913 292.645Z" fill="#F3CEFF"/>
<path d="M250.412 318.833C251.296 311.74 252.412 303.249 253.475 295.949L236.422 301.624L236.223 313.596L250.412 318.833Z" fill="#F3CEFF"/>
<path d="M258.562 224.436L258.219 224.557L258.202 224.319L244.167 226.801L237.14 214.83L235.579 247.004L258.723 224.488C258.669 224.471 258.616 224.453 258.562 224.436Z" fill="#F3CEFF"/>
<path d="M235.579 176.67V213.333L246.118 208.096L256.658 202.858L247.289 201.362L235.579 176.67Z" fill="#F3CEFF"/>
<path d="M235.579 352.504L251.685 335.807L245.724 332.484L235.579 352.504Z" fill="#F3CEFF"/>
<path d="M281.64 291.149L265.913 292.645L281.64 307.61V291.149Z" fill="#F3CEFF"/>
<path d="M170 143L171.561 176.67L191.311 165.366L227.772 144.496L170 143Z" fill="#F3CEFF"/>
<path d="M315.991 144.496L313.649 176.67L331.022 159.641L315.991 144.496Z" fill="#F3CEFF"/>
<path d="M257.871 219.711L256.658 202.858L246.118 208.096C240.837 221.3 249.162 222.098 257.871 219.711Z" fill="#F3CEFF"/>
<path d="M281.64 216.326L258.896 224.319C258.96 224.414 259.024 224.509 259.089 224.603C277.101 230.211 281.64 221.48 281.64 216.326Z" fill="#F3CEFF"/>
<path d="M263.255 293.29L265.913 292.645C269.136 289.076 272.993 276.596 276.407 262.622L259.275 270.498C259.925 284.894 261.367 291.696 263.255 293.29Z" fill="#F3CEFF"/>
<path d="M259.275 270.498L247.753 275.795C248.96 283.072 250.952 289.505 254.097 291.775C256.159 278.31 257.778 271.674 256.658 292.645C255.73 292.645 254.878 292.338 254.097 291.775C253.893 293.106 253.685 294.504 253.475 295.949L256.658 294.89L263.255 293.29C261.367 291.696 259.925 284.894 259.275 270.498Z" fill="#F3CEFF"/>
<path d="M236.954 269.45L236.422 301.624L253.475 295.949C253.685 294.504 253.893 293.106 254.097 291.775C250.952 289.505 248.96 283.072 247.753 275.795C247.197 272.447 246.808 268.921 246.549 265.538L236.954 269.45Z" fill="#F3CEFF"/>
<path d="M281.085 260.472V241.352C279.866 247.497 278.447 254.098 276.926 260.472H281.085Z" fill="#F3CEFF"/>
<path d="M265.906 343.733L275.922 331.693L271.667 315.092L251.685 335.807L265.906 343.733Z" fill="#F3CEFF"/>
<path d="M281.64 352.504V324.819L275.922 331.693L281.193 352.254L281.64 352.504Z" fill="#F3CEFF"/>
<path d="M258.61 352.504H281.257L281.193 352.254L265.906 343.733L258.61 352.504Z" fill="#F3CEFF"/>
<path d="M236 327.064L235.579 352.504L245.724 332.484L236 327.064Z" fill="#F3CEFF"/>
<path d="M281.085 241.352C279.715 242.73 270.385 245.122 246.118 254.647C246.118 257.715 246.242 261.525 246.549 265.538L258.975 260.472H276.926C278.447 254.098 279.866 247.497 281.085 241.352Z" fill="#F3CEFF"/>
<path d="M265.246 165.366L261.517 181.643C275.561 179.934 270.21 170.375 265.246 165.366Z" fill="#F3CEFF"/>
<path d="M313.649 176.67L315.991 144.496L297.165 163.42L313.649 176.67Z" fill="#F3CEFF"/>
<path d="M227.772 144.496H263.684V155.72H271.187L265.246 145.993L289.07 155.568L315.991 144.496V143L227.772 144.496Z" fill="#F3CEFF"/>
<path d="M289.07 155.568L289.447 155.72H288.701L274.703 161.477L283.716 176.234C285.699 170.247 288.152 161.827 289.447 157.216L297.165 163.42L315.991 144.496L289.07 155.568Z" fill="#F3CEFF"/>
<path d="M227.772 144.496L247.289 155.72H263.684V144.496H227.772Z" fill="#F3CEFF"/>
<path d="M247.289 155.72L227.772 144.496C233.878 168.969 219.879 175.947 209.564 176.67H235.579L247.289 155.72Z" fill="#F3CEFF"/>
<path d="M292.967 242V239.032H297.79V207.868H292.967V204.9H299.486C300.157 204.9 300.935 204.882 301.818 204.847C302.737 204.812 303.673 204.776 304.627 204.741C305.581 204.67 306.482 204.617 307.33 204.582C308.213 204.511 308.955 204.476 309.556 204.476C312.842 204.476 315.739 204.9 318.248 205.748C320.757 206.561 322.859 207.762 324.555 209.352C326.251 210.907 327.523 212.832 328.371 215.129C329.254 217.426 329.696 220.04 329.696 222.973C329.696 225.8 329.29 228.397 328.477 230.764C327.664 233.131 326.392 235.198 324.661 236.965C322.93 238.696 320.704 240.057 317.983 241.046C315.298 242 312.082 242.477 308.337 242.477C307.772 242.477 307.118 242.442 306.376 242.371C305.634 242.336 304.839 242.283 303.991 242.212C303.178 242.177 302.348 242.124 301.5 242.053C300.652 242.018 299.857 242 299.115 242H292.967ZM308.761 207.444C307.772 207.444 306.818 207.462 305.899 207.497C304.98 207.532 304.256 207.603 303.726 207.709V239.297C303.938 239.332 304.291 239.368 304.786 239.403C305.281 239.403 305.811 239.421 306.376 239.456C306.977 239.456 307.542 239.474 308.072 239.509C308.602 239.509 308.973 239.509 309.185 239.509C311.835 239.509 314.043 239.067 315.81 238.184C317.577 237.265 318.99 236.064 320.05 234.58C321.145 233.061 321.923 231.312 322.382 229.333C322.841 227.319 323.071 225.199 323.071 222.973C323.071 221.242 322.841 219.457 322.382 217.62C321.958 215.783 321.198 214.104 320.103 212.585C319.008 211.066 317.541 209.829 315.704 208.875C313.867 207.921 311.552 207.444 308.761 207.444ZM324.812 254.9V263.592H321.42V259.034L320.36 257.868H307.375V271.595H316.332L317.127 270.8V268.574H320.519V277.637H317.127V275.411L316.332 274.563H307.375V289.032H321.261L322.321 287.972V282.778H325.713V292H296.616V289.032H301.439V257.868H296.616V254.9H324.812ZM324.098 307.868H319.275V304.9H332.419V307.868H328.073L315.777 342H309.894L296.114 307.868H291.556V304.9H307.827V307.868H302.739L312.279 332.619L313.816 337.654H314.028L315.618 332.513L324.098 307.868Z" fill="#834E94"/>
<path d="M292.967 242H291.967V243H292.967V242ZM292.967 239.032V238.032H291.967V239.032H292.967ZM297.79 239.032V240.032H298.79V239.032H297.79ZM297.79 207.868H298.79V206.868H297.79V207.868ZM292.967 207.868H291.967V208.868H292.967V207.868ZM292.967 204.9V203.9H291.967V204.9H292.967ZM301.818 204.847L301.78 203.848L301.778 203.848L301.818 204.847ZM304.627 204.741L304.664 205.74L304.682 205.74L304.701 205.738L304.627 204.741ZM307.33 204.582L307.372 205.581L307.391 205.58L307.41 205.579L307.33 204.582ZM318.248 205.748L317.928 206.695L317.94 206.699L318.248 205.748ZM324.555 209.352L323.871 210.082L323.879 210.089L324.555 209.352ZM328.371 215.129L327.433 215.475L327.438 215.488L328.371 215.129ZM328.477 230.764L327.531 230.439L328.477 230.764ZM324.661 236.965L325.368 237.672L325.375 237.665L324.661 236.965ZM317.983 241.046L318.318 241.988L318.325 241.986L317.983 241.046ZM306.376 242.371L306.471 241.376L306.447 241.373L306.424 241.372L306.376 242.371ZM303.991 242.212L304.074 241.215L304.054 241.214L304.034 241.213L303.991 242.212ZM301.5 242.053L301.583 241.056L301.562 241.055L301.542 241.054L301.5 242.053ZM305.899 207.497L305.937 208.496L305.937 208.496L305.899 207.497ZM303.726 207.709L303.53 206.728L302.726 206.889V207.709H303.726ZM303.726 239.297H302.726V240.144L303.562 240.283L303.726 239.297ZM304.786 239.403L304.715 240.4L304.75 240.403H304.786V239.403ZM306.376 239.456L306.314 240.454L306.345 240.456H306.376V239.456ZM308.072 239.509L308.005 240.507L308.039 240.509H308.072V239.509ZM315.81 238.184L316.257 239.078L316.264 239.075L316.271 239.071L315.81 238.184ZM320.05 234.58L319.239 233.995L319.236 233.999L320.05 234.58ZM322.382 229.333L323.356 229.559L323.357 229.555L322.382 229.333ZM322.382 217.62L321.408 217.845L321.41 217.854L321.412 217.863L322.382 217.62ZM320.103 212.585L319.292 213.17L319.292 213.17L320.103 212.585ZM315.704 208.875L315.243 209.762L315.243 209.762L315.704 208.875ZM293.967 242V239.032H291.967V242H293.967ZM292.967 240.032H297.79V238.032H292.967V240.032ZM298.79 239.032V207.868H296.79V239.032H298.79ZM297.79 206.868H292.967V208.868H297.79V206.868ZM293.967 207.868V204.9H291.967V207.868H293.967ZM292.967 205.9H299.486V203.9H292.967V205.9ZM299.486 205.9C300.174 205.9 300.965 205.882 301.858 205.846L301.778 203.848C300.904 203.883 300.141 203.9 299.486 203.9V205.9ZM301.856 205.846C302.775 205.811 303.71 205.776 304.664 205.74L304.59 203.742C303.636 203.777 302.699 203.812 301.78 203.848L301.856 205.846ZM304.701 205.738C305.645 205.668 306.536 205.616 307.372 205.581L307.288 203.583C306.428 203.619 305.517 203.672 304.553 203.744L304.701 205.738ZM307.41 205.579C308.278 205.509 308.991 205.476 309.556 205.476V203.476C308.919 203.476 308.149 203.513 307.25 203.585L307.41 205.579ZM309.556 205.476C312.758 205.476 315.544 205.889 317.928 206.695L318.568 204.801C315.935 203.911 312.926 203.476 309.556 203.476V205.476ZM317.94 206.699C320.327 207.473 322.296 208.605 323.871 210.082L325.239 208.622C323.422 206.919 321.186 205.649 318.556 204.797L317.94 206.699ZM323.879 210.089C325.45 211.529 326.636 213.318 327.433 215.475L329.309 214.783C328.41 212.347 327.052 210.284 325.231 208.615L323.879 210.089ZM327.438 215.488C328.269 217.65 328.696 220.14 328.696 222.973H330.696C330.696 219.941 330.239 217.201 329.304 214.77L327.438 215.488ZM328.696 222.973C328.696 225.703 328.304 228.189 327.531 230.439L329.423 231.089C330.276 228.604 330.696 225.896 330.696 222.973H328.696ZM327.531 230.439C326.766 232.668 325.573 234.606 323.947 236.265L325.375 237.665C327.212 235.791 328.562 233.595 329.423 231.089L327.531 230.439ZM323.954 236.258C322.343 237.869 320.249 239.158 317.641 240.106L318.325 241.986C321.158 240.956 323.516 239.524 325.368 237.672L323.954 236.258ZM317.648 240.104C315.098 241.01 312.002 241.477 308.337 241.477V243.477C312.163 243.477 315.497 242.99 318.318 241.988L317.648 240.104ZM308.337 241.477C307.811 241.477 307.191 241.444 306.471 241.376L306.281 243.366C307.045 243.439 307.732 243.477 308.337 243.477V241.477ZM306.424 241.372C305.695 241.337 304.912 241.285 304.074 241.215L303.908 243.209C304.766 243.28 305.573 243.334 306.328 243.37L306.424 241.372ZM304.034 241.213C303.236 241.178 302.418 241.126 301.583 241.056L301.417 243.05C302.278 243.121 303.121 243.175 303.948 243.211L304.034 241.213ZM301.542 241.054C300.682 241.018 299.873 241 299.115 241V243C299.841 243 300.622 243.017 301.458 243.052L301.542 241.054ZM299.115 241H292.967V243H299.115V241ZM308.761 206.444C307.76 206.444 306.793 206.462 305.861 206.498L305.937 208.496C306.842 208.461 307.784 208.444 308.761 208.444V206.444ZM305.861 206.498C304.92 206.534 304.135 206.607 303.53 206.728L303.922 208.69C304.377 208.599 305.041 208.531 305.937 208.496L305.861 206.498ZM302.726 207.709V239.297H304.726V207.709H302.726ZM303.562 240.283C303.824 240.327 304.218 240.365 304.715 240.4L304.857 238.406C304.364 238.37 304.052 238.338 303.89 238.311L303.562 240.283ZM304.786 240.403C305.257 240.403 305.766 240.42 306.314 240.454L306.438 238.458C305.855 238.421 305.304 238.403 304.786 238.403V240.403ZM306.376 240.456C306.957 240.456 307.5 240.473 308.005 240.507L308.139 238.511C307.584 238.474 306.996 238.456 306.376 238.456V240.456ZM308.072 240.509C308.073 240.509 308.074 240.509 308.075 240.509C308.076 240.509 308.077 240.509 308.078 240.509C308.079 240.509 308.08 240.509 308.081 240.509C308.082 240.509 308.083 240.509 308.084 240.509C308.085 240.509 308.086 240.509 308.087 240.509C308.089 240.509 308.09 240.509 308.091 240.509C308.092 240.509 308.093 240.509 308.094 240.509C308.095 240.509 308.096 240.509 308.097 240.509C308.098 240.509 308.099 240.509 308.1 240.509C308.101 240.509 308.102 240.509 308.103 240.509C308.104 240.509 308.105 240.509 308.106 240.509C308.107 240.509 308.108 240.509 308.109 240.509C308.11 240.509 308.111 240.509 308.112 240.509C308.113 240.509 308.114 240.509 308.115 240.509C308.116 240.509 308.117 240.509 308.118 240.509C308.119 240.509 308.12 240.509 308.121 240.509C308.122 240.509 308.123 240.509 308.124 240.509C308.125 240.509 308.126 240.509 308.127 240.509C308.128 240.509 308.129 240.509 308.13 240.509C308.131 240.509 308.132 240.509 308.133 240.509C308.134 240.509 308.135 240.509 308.136 240.509C308.137 240.509 308.138 240.509 308.139 240.509C308.14 240.509 308.141 240.509 308.142 240.509C308.143 240.509 308.144 240.509 308.145 240.509C308.146 240.509 308.147 240.509 308.148 240.509C308.15 240.509 308.151 240.509 308.152 240.509C308.153 240.509 308.154 240.509 308.155 240.509C308.156 240.509 308.157 240.509 308.158 240.509C308.159 240.509 308.16 240.509 308.161 240.509C308.162 240.509 308.163 240.509 308.164 240.509C308.165 240.509 308.166 240.509 308.167 240.509C308.168 240.509 308.169 240.509 308.17 240.509C308.171 240.509 308.172 240.509 308.172 240.509C308.173 240.509 308.174 240.509 308.175 240.509C308.176 240.509 308.177 240.509 308.178 240.509C308.179 240.509 308.18 240.509 308.181 240.509C308.182 240.509 308.183 240.509 308.184 240.509C308.185 240.509 308.186 240.509 308.187 240.509C308.188 240.509 308.189 240.509 308.19 240.509C308.191 240.509 308.192 240.509 308.193 240.509C308.194 240.509 308.195 240.509 308.196 240.509C308.197 240.509 308.198 240.509 308.199 240.509C308.2 240.509 308.201 240.509 308.202 240.509C308.203 240.509 308.204 240.509 308.205 240.509C308.206 240.509 308.207 240.509 308.208 240.509C308.209 240.509 308.21 240.509 308.211 240.509C308.212 240.509 308.213 240.509 308.214 240.509C308.215 240.509 308.216 240.509 308.217 240.509C308.218 240.509 308.219 240.509 308.22 240.509C308.221 240.509 308.222 240.509 308.223 240.509C308.224 240.509 308.225 240.509 308.226 240.509C308.227 240.509 308.228 240.509 308.229 240.509C308.23 240.509 308.231 240.509 308.231 240.509C308.232 240.509 308.233 240.509 308.234 240.509C308.235 240.509 308.236 240.509 308.237 240.509C308.238 240.509 308.239 240.509 308.24 240.509C308.241 240.509 308.242 240.509 308.243 240.509C308.244 240.509 308.245 240.509 308.246 240.509C308.247 240.509 308.248 240.509 308.249 240.509C308.25 240.509 308.251 240.509 308.252 240.509C308.253 240.509 308.254 240.509 308.255 240.509C308.256 240.509 308.257 240.509 308.258 240.509C308.259 240.509 308.259 240.509 308.26 240.509C308.261 240.509 308.262 240.509 308.263 240.509C308.264 240.509 308.265 240.509 308.266 240.509C308.267 240.509 308.268 240.509 308.269 240.509C308.27 240.509 308.271 240.509 308.272 240.509C308.273 240.509 308.274 240.509 308.275 240.509C308.276 240.509 308.277 240.509 308.278 240.509C308.279 240.509 308.28 240.509 308.28 240.509C308.281 240.509 308.282 240.509 308.283 240.509C308.284 240.509 308.285 240.509 308.286 240.509C308.287 240.509 308.288 240.509 308.289 240.509C308.29 240.509 308.291 240.509 308.292 240.509C308.293 240.509 308.294 240.509 308.295 240.509C308.296 240.509 308.297 240.509 308.298 240.509C308.298 240.509 308.299 240.509 308.3 240.509C308.301 240.509 308.302 240.509 308.303 240.509C308.304 240.509 308.305 240.509 308.306 240.509C308.307 240.509 308.308 240.509 308.309 240.509C308.31 240.509 308.311 240.509 308.312 240.509C308.313 240.509 308.313 240.509 308.314 240.509C308.315 240.509 308.316 240.509 308.317 240.509C308.318 240.509 308.319 240.509 308.32 240.509C308.321 240.509 308.322 240.509 308.323 240.509C308.324 240.509 308.325 240.509 308.326 240.509C308.327 240.509 308.327 240.509 308.328 240.509C308.329 240.509 308.33 240.509 308.331 240.509C308.332 240.509 308.333 240.509 308.334 240.509C308.335 240.509 308.336 240.509 308.337 240.509C308.338 240.509 308.339 240.509 308.34 240.509C308.34 240.509 308.341 240.509 308.342 240.509C308.343 240.509 308.344 240.509 308.345 240.509C308.346 240.509 308.347 240.509 308.348 240.509C308.349 240.509 308.35 240.509 308.351 240.509C308.352 240.509 308.352 240.509 308.353 240.509C308.354 240.509 308.355 240.509 308.356 240.509C308.357 240.509 308.358 240.509 308.359 240.509C308.36 240.509 308.361 240.509 308.362 240.509C308.363 240.509 308.363 240.509 308.364 240.509C308.365 240.509 308.366 240.509 308.367 240.509C308.368 240.509 308.369 240.509 308.37 240.509C308.371 240.509 308.372 240.509 308.373 240.509C308.373 240.509 308.374 240.509 308.375 240.509C308.376 240.509 308.377 240.509 308.378 240.509C308.379 240.509 308.38 240.509 308.381 240.509C308.382 240.509 308.383 240.509 308.383 240.509C308.384 240.509 308.385 240.509 308.386 240.509C308.387 240.509 308.388 240.509 308.389 240.509C308.39 240.509 308.391 240.509 308.392 240.509C308.392 240.509 308.393 240.509 308.394 240.509C308.395 240.509 308.396 240.509 308.397 240.509C308.398 240.509 308.399 240.509 308.4 240.509C308.401 240.509 308.401 240.509 308.402 240.509C308.403 240.509 308.404 240.509 308.405 240.509C308.406 240.509 308.407 240.509 308.408 240.509C308.409 240.509 308.41 240.509 308.41 240.509C308.411 240.509 308.412 240.509 308.413 240.509C308.414 240.509 308.415 240.509 308.416 240.509C308.417 240.509 308.418 240.509 308.418 240.509C308.419 240.509 308.42 240.509 308.421 240.509C308.422 240.509 308.423 240.509 308.424 240.509C308.425 240.509 308.426 240.509 308.426 240.509C308.427 240.509 308.428 240.509 308.429 240.509C308.43 240.509 308.431 240.509 308.432 240.509C308.433 240.509 308.434 240.509 308.434 240.509C308.435 240.509 308.436 240.509 308.437 240.509C308.438 240.509 308.439 240.509 308.44 240.509C308.441 240.509 308.441 240.509 308.442 240.509C308.443 240.509 308.444 240.509 308.445 240.509C308.446 240.509 308.447 240.509 308.448 240.509C308.448 240.509 308.449 240.509 308.45 240.509C308.451 240.509 308.452 240.509 308.453 240.509C308.454 240.509 308.455 240.509 308.455 240.509C308.456 240.509 308.457 240.509 308.458 240.509C308.459 240.509 308.46 240.509 308.461 240.509C308.462 240.509 308.462 240.509 308.463 240.509C308.464 240.509 308.465 240.509 308.466 240.509C308.467 240.509 308.468 240.509 308.469 240.509C308.469 240.509 308.47 240.509 308.471 240.509C308.472 240.509 308.473 240.509 308.474 240.509C308.475 240.509 308.475 240.509 308.476 240.509C308.477 240.509 308.478 240.509 308.479 240.509C308.48 240.509 308.481 240.509 308.481 240.509C308.482 240.509 308.483 240.509 308.484 240.509C308.485 240.509 308.486 240.509 308.487 240.509C308.487 240.509 308.488 240.509 308.489 240.509C308.49 240.509 308.491 240.509 308.492 240.509C308.493 240.509 308.493 240.509 308.494 240.509C308.495 240.509 308.496 240.509 308.497 240.509C308.498 240.509 308.499 240.509 308.499 240.509C308.5 240.509 308.501 240.509 308.502 240.509C308.503 240.509 308.504 240.509 308.505 240.509C308.505 240.509 308.506 240.509 308.507 240.509C308.508 240.509 308.509 240.509 308.51 240.509C308.51 240.509 308.511 240.509 308.512 240.509C308.513 240.509 308.514 240.509 308.515 240.509C308.516 240.509 308.516 240.509 308.517 240.509C308.518 240.509 308.519 240.509 308.52 240.509C308.521 240.509 308.521 240.509 308.522 240.509C308.523 240.509 308.524 240.509 308.525 240.509C308.526 240.509 308.526 240.509 308.527 240.509C308.528 240.509 308.529 240.509 308.53 240.509C308.531 240.509 308.532 240.509 308.532 240.509C308.533 240.509 308.534 240.509 308.535 240.509C308.536 240.509 308.537 240.509 308.537 240.509C308.538 240.509 308.539 240.509 308.54 240.509C308.541 240.509 308.542 240.509 308.542 240.509C308.543 240.509 308.544 240.509 308.545 240.509C308.546 240.509 308.547 240.509 308.547 240.509C308.548 240.509 308.549 240.509 308.55 240.509C308.551 240.509 308.551 240.509 308.552 240.509C308.553 240.509 308.554 240.509 308.555 240.509C308.556 240.509 308.556 240.509 308.557 240.509C308.558 240.509 308.559 240.509 308.56 240.509C308.561 240.509 308.561 240.509 308.562 240.509C308.563 240.509 308.564 240.509 308.565 240.509C308.565 240.509 308.566 240.509 308.567 240.509C308.568 240.509 308.569 240.509 308.57 240.509C308.57 240.509 308.571 240.509 308.572 240.509C308.573 240.509 308.574 240.509 308.574 240.509C308.575 240.509 308.576 240.509 308.577 240.509C308.578 240.509 308.579 240.509 308.579 240.509C308.58 240.509 308.581 240.509 308.582 240.509C308.583 240.509 308.583 240.509 308.584 240.509C308.585 240.509 308.586 240.509 308.587 240.509C308.587 240.509 308.588 240.509 308.589 240.509C308.59 240.509 308.591 240.509 308.592 240.509C308.592 240.509 308.593 240.509 308.594 240.509C308.595 240.509 308.596 240.509 308.596 240.509C308.597 240.509 308.598 240.509 308.599 240.509C308.6 240.509 308.6 240.509 308.601 240.509C308.602 240.509 308.603 240.509 308.604 240.509C308.604 240.509 308.605 240.509 308.606 240.509C308.607 240.509 308.608 240.509 308.608 240.509C308.609 240.509 308.61 240.509 308.611 240.509C308.612 240.509 308.612 240.509 308.613 240.509C308.614 240.509 308.615 240.509 308.616 240.509C308.616 240.509 308.617 240.509 308.618 240.509C308.619 240.509 308.62 240.509 308.62 240.509C308.621 240.509 308.622 240.509 308.623 240.509C308.623 240.509 308.624 240.509 308.625 240.509C308.626 240.509 308.627 240.509 308.627 240.509C308.628 240.509 308.629 240.509 308.63 240.509C308.631 240.509 308.631 240.509 308.632 240.509C308.633 240.509 308.634 240.509 308.635 240.509C308.635 240.509 308.636 240.509 308.637 240.509C308.638 240.509 308.638 240.509 308.639 240.509C308.64 240.509 308.641 240.509 308.642 240.509C308.642 240.509 308.643 240.509 308.644 240.509C308.645 240.509 308.645 240.509 308.646 240.509C308.647 240.509 308.648 240.509 308.649 240.509C308.649 240.509 308.65 240.509 308.651 240.509C308.652 240.509 308.652 240.509 308.653 240.509C308.654 240.509 308.655 240.509 308.656 240.509C308.656 240.509 308.657 240.509 308.658 240.509C308.659 240.509 308.659 240.509 308.66 240.509C308.661 240.509 308.662 240.509 308.663 240.509C308.663 240.509 308.664 240.509 308.665 240.509C308.666 240.509 308.666 240.509 308.667 240.509C308.668 240.509 308.669 240.509 308.669 240.509C308.67 240.509 308.671 240.509 308.672 240.509C308.672 240.509 308.673 240.509 308.674 240.509C308.675 240.509 308.676 240.509 308.676 240.509C308.677 240.509 308.678 240.509 308.679 240.509C308.679 240.509 308.68 240.509 308.681 240.509C308.682 240.509 308.682 240.509 308.683 240.509C308.684 240.509 308.685 240.509 308.685 240.509C308.686 240.509 308.687 240.509 308.688 240.509C308.688 240.509 308.689 240.509 308.69 240.509C308.691 240.509 308.692 240.509 308.692 240.509C308.693 240.509 308.694 240.509 308.695 240.509C308.695 240.509 308.696 240.509 308.697 240.509C308.698 240.509 308.698 240.509 308.699 240.509C308.7 240.509 308.701 240.509 308.701 240.509C308.702 240.509 308.703 240.509 308.704 240.509C308.704 240.509 308.705 240.509 308.706 240.509C308.707 240.509 308.707 240.509 308.708 240.509C308.709 240.509 308.71 240.509 308.71 240.509C308.711 240.509 308.712 240.509 308.712 240.509C308.713 240.509 308.714 240.509 308.715 240.509C308.715 240.509 308.716 240.509 308.717 240.509C308.718 240.509 308.718 240.509 308.719 240.509C308.72 240.509 308.721 240.509 308.721 240.509C308.722 240.509 308.723 240.509 308.724 240.509C308.724 240.509 308.725 240.509 308.726 240.509C308.727 240.509 308.727 240.509 308.728 240.509C308.729 240.509 308.73 240.509 308.73 240.509C308.731 240.509 308.732 240.509 308.732 240.509C308.733 240.509 308.734 240.509 308.735 240.509C308.735 240.509 308.736 240.509 308.737 240.509C308.738 240.509 308.738 240.509 308.739 240.509C308.74 240.509 308.74 240.509 308.741 240.509C308.742 240.509 308.743 240.509 308.743 240.509C308.744 240.509 308.745 240.509 308.746 240.509C308.746 240.509 308.747 240.509 308.748 240.509C308.748 240.509 308.749 240.509 308.75 240.509C308.751 240.509 308.751 240.509 308.752 240.509C308.753 240.509 308.754 240.509 308.754 240.509C308.755 240.509 308.756 240.509 308.756 240.509C308.757 240.509 308.758 240.509 308.759 240.509C308.759 240.509 308.76 240.509 308.761 240.509C308.761 240.509 308.762 240.509 308.763 240.509C308.764 240.509 308.764 240.509 308.765 240.509C308.766 240.509 308.766 240.509 308.767 240.509C308.768 240.509 308.769 240.509 308.769 240.509C308.77 240.509 308.771 240.509 308.771 240.509C308.772 240.509 308.773 240.509 308.774 240.509C308.774 240.509 308.775 240.509 308.776 240.509C308.776 240.509 308.777 240.509 308.778 240.509C308.779 240.509 308.779 240.509 308.78 240.509C308.781 240.509 308.781 240.509 308.782 240.509C308.783 240.509 308.783 240.509 308.784 240.509C308.785 240.509 308.786 240.509 308.786 240.509C308.787 240.509 308.788 240.509 308.788 240.509C308.789 240.509 308.79 240.509 308.79 240.509C308.791 240.509 308.792 240.509 308.793 240.509C308.793 240.509 308.794 240.509 308.795 240.509C308.795 240.509 308.796 240.509 308.797 240.509C308.797 240.509 308.798 240.509 308.799 240.509C308.8 240.509 308.8 240.509 308.801 240.509C308.802 240.509 308.802 240.509 308.803 240.509C308.804 240.509 308.804 240.509 308.805 240.509C308.806 240.509 308.806 240.509 308.807 240.509C308.808 240.509 308.809 240.509 308.809 240.509C308.81 240.509 308.811 240.509 308.811 240.509C308.812 240.509 308.813 240.509 308.813 240.509C308.814 240.509 308.815 240.509 308.815 240.509C308.816 240.509 308.817 240.509 308.818 240.509C308.818 240.509 308.819 240.509 308.82 240.509C308.82 240.509 308.821 240.509 308.822 240.509C308.822 240.509 308.823 240.509 308.824 240.509C308.824 240.509 308.825 240.509 308.826 240.509C308.826 240.509 308.827 240.509 308.828 240.509C308.828 240.509 308.829 240.509 308.83 240.509C308.83 240.509 308.831 240.509 308.832 240.509C308.832 240.509 308.833 240.509 308.834 240.509C308.834 240.509 308.835 240.509 308.836 240.509C308.837 240.509 308.837 240.509 308.838 240.509C308.839 240.509 308.839 240.509 308.84 240.509C308.841 240.509 308.841 240.509 308.842 240.509C308.843 240.509 308.843 240.509 308.844 240.509C308.845 240.509 308.845 240.509 308.846 240.509C308.847 240.509 308.847 240.509 308.848 240.509C308.849 240.509 308.849 240.509 308.85 240.509C308.851 240.509 308.851 240.509 308.852 240.509C308.853 240.509 308.853 240.509 308.854 240.509C308.855 240.509 308.855 240.509 308.856 240.509C308.857 240.509 308.857 240.509 308.858 240.509C308.859 240.509 308.859 240.509 308.86 240.509C308.86 240.509 308.861 240.509 308.862 240.509C308.862 240.509 308.863 240.509 308.864 240.509C308.864 240.509 308.865 240.509 308.866 240.509C308.866 240.509 308.867 240.509 308.868 240.509C308.868 240.509 308.869 240.509 308.87 240.509C308.87 240.509 308.871 240.509 308.872 240.509C308.872 240.509 308.873 240.509 308.874 240.509C308.874 240.509 308.875 240.509 308.876 240.509C308.876 240.509 308.877 240.509 308.877 240.509C308.878 240.509 308.879 240.509 308.879 240.509C308.88 240.509 308.881 240.509 308.881 240.509C308.882 240.509 308.883 240.509 308.883 240.509C308.884 240.509 308.885 240.509 308.885 240.509C308.886 240.509 308.887 240.509 308.887 240.509C308.888 240.509 308.888 240.509 308.889 240.509C308.89 240.509 308.89 240.509 308.891 240.509C308.892 240.509 308.892 240.509 308.893 240.509C308.894 240.509 308.894 240.509 308.895 240.509C308.895 240.509 308.896 240.509 308.897 240.509C308.897 240.509 308.898 240.509 308.899 240.509C308.899 240.509 308.9 240.509 308.901 240.509C308.901 240.509 308.902 240.509 308.902 240.509C308.903 240.509 308.904 240.509 308.904 240.509C308.905 240.509 308.906 240.509 308.906 240.509C308.907 240.509 308.907 240.509 308.908 240.509C308.909 240.509 308.909 240.509 308.91 240.509C308.911 240.509 308.911 240.509 308.912 240.509C308.913 240.509 308.913 240.509 308.914 240.509C308.914 240.509 308.915 240.509 308.916 240.509C308.916 240.509 308.917 240.509 308.918 240.509C308.918 240.509 308.919 240.509 308.919 240.509C308.92 240.509 308.921 240.509 308.921 240.509C308.922 240.509 308.922 240.509 308.923 240.509C308.924 240.509 308.924 240.509 308.925 240.509C308.926 240.509 308.926 240.509 308.927 240.509C308.927 240.509 308.928 240.509 308.929 240.509C308.929 240.509 308.93 240.509 308.93 240.509C308.931 240.509 308.932 240.509 308.932 240.509C308.933 240.509 308.934 240.509 308.934 240.509C308.935 240.509 308.935 240.509 308.936 240.509C308.937 240.509 308.937 240.509 308.938 240.509C308.938 240.509 308.939 240.509 308.94 240.509C308.94 240.509 308.941 240.509 308.941 240.509C308.942 240.509 308.943 240.509 308.943 240.509C308.944 240.509 308.945 240.509 308.945 240.509C308.946 240.509 308.946 240.509 308.947 240.509C308.948 240.509 308.948 240.509 308.949 240.509C308.949 240.509 308.95 240.509 308.951 240.509C308.951 240.509 308.952 240.509 308.952 240.509C308.953 240.509 308.954 240.509 308.954 240.509C308.955 240.509 308.955 240.509 308.956 240.509C308.957 240.509 308.957 240.509 308.958 240.509C308.958 240.509 308.959 240.509 308.96 240.509C308.96 240.509 308.961 240.509 308.961 240.509C308.962 240.509 308.962 240.509 308.963 240.509C308.964 240.509 308.964 240.509 308.965 240.509C308.965 240.509 308.966 240.509 308.967 240.509C308.967 240.509 308.968 240.509 308.968 240.509C308.969 240.509 308.97 240.509 308.97 240.509C308.971 240.509 308.971 240.509 308.972 240.509C308.973 240.509 308.973 240.509 308.974 240.509C308.974 240.509 308.975 240.509 308.975 240.509C308.976 240.509 308.977 240.509 308.977 240.509C308.978 240.509 308.978 240.509 308.979 240.509C308.98 240.509 308.98 240.509 308.981 240.509C308.981 240.509 308.982 240.509 308.982 240.509C308.983 240.509 308.984 240.509 308.984 240.509C308.985 240.509 308.985 240.509 308.986 240.509C308.986 240.509 308.987 240.509 308.988 240.509C308.988 240.509 308.989 240.509 308.989 240.509C308.99 240.509 308.99 240.509 308.991 240.509C308.992 240.509 308.992 240.509 308.993 240.509C308.993 240.509 308.994 240.509 308.994 240.509C308.995 240.509 308.996 240.509 308.996 240.509C308.997 240.509 308.997 240.509 308.998 240.509C308.998 240.509 308.999 240.509 309 240.509C309 240.509 309.001 240.509 309.001 240.509C309.002 240.509 309.002 240.509 309.003 240.509C309.004 240.509 309.004 240.509 309.005 240.509C309.005 240.509 309.006 240.509 309.006 240.509C309.007 240.509 309.007 240.509 309.008 240.509C309.009 240.509 309.009 240.509 309.01 240.509C309.01 240.509 309.011 240.509 309.011 240.509C309.012 240.509 309.013 240.509 309.013 240.509C309.014 240.509 309.014 240.509 309.015 240.509C309.015 240.509 309.016 240.509 309.016 240.509C309.017 240.509 309.018 240.509 309.018 240.509C309.019 240.509 309.019 240.509 309.02 240.509C309.02 240.509 309.021 240.509 309.021 240.509C309.022 240.509 309.022 240.509 309.023 240.509C309.024 240.509 309.024 240.509 309.025 240.509C309.025 240.509 309.026 240.509 309.026 240.509C309.027 240.509 309.027 240.509 309.028 240.509C309.029 240.509 309.029 240.509 309.03 240.509C309.03 240.509 309.031 240.509 309.031 240.509C309.032 240.509 309.032 240.509 309.033 240.509C309.033 240.509 309.034 240.509 309.035 240.509C309.035 240.509 309.036 240.509 309.036 240.509C309.037 240.509 309.037 240.509 309.038 240.509C309.038 240.509 309.039 240.509 309.039 240.509C309.04 240.509 309.04 240.509 309.041 240.509C309.042 240.509 309.042 240.509 309.043 240.509C309.043 240.509 309.044 240.509 309.044 240.509C309.045 240.509 309.045 240.509 309.046 240.509C309.046 240.509 309.047 240.509 309.047 240.509C309.048 240.509 309.048 240.509 309.049 240.509C309.05 240.509 309.05 240.509 309.051 240.509C309.051 240.509 309.052 240.509 309.052 240.509C309.053 240.509 309.053 240.509 309.054 240.509C309.054 240.509 309.055 240.509 309.055 240.509C309.056 240.509 309.056 240.509 309.057 240.509C309.057 240.509 309.058 240.509 309.058 240.509C309.059 240.509 309.06 240.509 309.06 240.509C309.061 240.509 309.061 240.509 309.062 240.509C309.062 240.509 309.063 240.509 309.063 240.509C309.064 240.509 309.064 240.509 309.065 240.509C309.065 240.509 309.066 240.509 309.066 240.509C309.067 240.509 309.067 240.509 309.068 240.509C309.068 240.509 309.069 240.509 309.069 240.509C309.07 240.509 309.07 240.509 309.071 240.509C309.071 240.509 309.072 240.509 309.072 240.509C309.073 240.509 309.073 240.509 309.074 240.509C309.074 240.509 309.075 240.509 309.076 240.509C309.076 240.509 309.077 240.509 309.077 240.509C309.078 240.509 309.078 240.509 309.079 240.509C309.079 240.509 309.08 240.509 309.08 240.509C309.081 240.509 309.081 240.509 309.082 240.509C309.082 240.509 309.083 240.509 309.083 240.509C309.084 240.509 309.084 240.509 309.085 240.509C309.085 240.509 309.086 240.509 309.086 240.509C309.087 240.509 309.087 240.509 309.088 240.509C309.088 240.509 309.089 240.509 309.089 240.509C309.09 240.509 309.09 240.509 309.091 240.509C309.091 240.509 309.092 240.509 309.092 240.509C309.093 240.509 309.093 240.509 309.094 240.509C309.094 240.509 309.095 240.509 309.095 240.509C309.096 240.509 309.096 240.509 309.097 240.509C309.097 240.509 309.098 240.509 309.098 240.509C309.099 240.509 309.099 240.509 309.1 240.509C309.1 240.509 309.1 240.509 309.101 240.509C309.101 240.509 309.102 240.509 309.102 240.509C309.103 240.509 309.103 240.509 309.104 240.509C309.104 240.509 309.105 240.509 309.105 240.509C309.106 240.509 309.106 240.509 309.107 240.509C309.107 240.509 309.108 240.509 309.108 240.509C309.109 240.509 309.109 240.509 309.11 240.509C309.11 240.509 309.111 240.509 309.111 240.509C309.112 240.509 309.112 240.509 309.113 240.509C309.113 240.509 309.114 240.509 309.114 240.509C309.115 240.509 309.115 240.509 309.115 240.509C309.116 240.509 309.116 240.509 309.117 240.509C309.117 240.509 309.118 240.509 309.118 240.509C309.119 240.509 309.119 240.509 309.12 240.509C309.12 240.509 309.121 240.509 309.121 240.509C309.122 240.509 309.122 240.509 309.123 240.509C309.123 240.509 309.124 240.509 309.124 240.509C309.124 240.509 309.125 240.509 309.125 240.509C309.126 240.509 309.126 240.509 309.127 240.509C309.127 240.509 309.128 240.509 309.128 240.509C309.129 240.509 309.129 240.509 309.13 240.509C309.13 240.509 309.131 240.509 309.131 240.509C309.131 240.509 309.132 240.509 309.132 240.509C309.133 240.509 309.133 240.509 309.134 240.509C309.134 240.509 309.135 240.509 309.135 240.509C309.136 240.509 309.136 240.509 309.137 240.509C309.137 240.509 309.137 240.509 309.138 240.509C309.138 240.509 309.139 240.509 309.139 240.509C309.14 240.509 309.14 240.509 309.141 240.509C309.141 240.509 309.142 240.509 309.142 240.509C309.142 240.509 309.143 240.509 309.143 240.509C309.144 240.509 309.144 240.509 309.145 240.509C309.145 240.509 309.146 240.509 309.146 240.509C309.147 240.509 309.147 240.509 309.147 240.509C309.148 240.509 309.148 240.509 309.149 240.509C309.149 240.509 309.15 240.509 309.15 240.509C309.151 240.509 309.151 240.509 309.151 240.509C309.152 240.509 309.152 240.509 309.153 240.509C309.153 240.509 309.154 240.509 309.154 240.509C309.155 240.509 309.155 240.509 309.155 240.509C309.156 240.509 309.156 240.509 309.157 240.509C309.157 240.509 309.158 240.509 309.158 240.509C309.159 240.509 309.159 240.509 309.159 240.509C309.16 240.509 309.16 240.509 309.161 240.509C309.161 240.509 309.162 240.509 309.162 240.509C309.162 240.509 309.163 240.509 309.163 240.509C309.164 240.509 309.164 240.509 309.165 240.509C309.165 240.509 309.166 240.509 309.166 240.509C309.166 240.509 309.167 240.509 309.167 240.509C309.168 240.509 309.168 240.509 309.169 240.509C309.169 240.509 309.169 240.509 309.17 240.509C309.17 240.509 309.171 240.509 309.171 240.509C309.172 240.509 309.172 240.509 309.172 240.509C309.173 240.509 309.173 240.509 309.174 240.509C309.174 240.509 309.175 240.509 309.175 240.509C309.175 240.509 309.176 240.509 309.176 240.509C309.177 240.509 309.177 240.509 309.177 240.509C309.178 240.509 309.178 240.509 309.179 240.509C309.179 240.509 309.18 240.509 309.18 240.509C309.18 240.509 309.181 240.509 309.181 240.509C309.182 240.509 309.182 240.509 309.183 240.509C309.183 240.509 309.183 240.509 309.184 240.509C309.184 240.509 309.185 240.509 309.185 240.509V238.509C309.185 238.509 309.184 238.509 309.184 238.509C309.183 238.509 309.183 238.509 309.183 238.509C309.182 238.509 309.182 238.509 309.181 238.509C309.181 238.509 309.18 238.509 309.18 238.509C309.18 238.509 309.179 238.509 309.179 238.509C309.178 238.509 309.178 238.509 309.177 238.509C309.177 238.509 309.177 238.509 309.176 238.509C309.176 238.509 309.175 238.509 309.175 238.509C309.175 238.509 309.174 238.509 309.174 238.509C309.173 238.509 309.173 238.509 309.172 238.509C309.172 238.509 309.172 238.509 309.171 238.509C309.171 238.509 309.17 238.509 309.17 238.509C309.169 238.509 309.169 238.509 309.169 238.509C309.168 238.509 309.168 238.509 309.167 238.509C309.167 238.509 309.166 238.509 309.166 238.509C309.166 238.509 309.165 238.509 309.165 238.509C309.164 238.509 309.164 238.509 309.163 238.509C309.163 238.509 309.162 238.509 309.162 238.509C309.162 238.509 309.161 238.509 309.161 238.509C309.16 238.509 309.16 238.509 309.159 238.509C309.159 238.509 309.159 238.509 309.158 238.509C309.158 238.509 309.157 238.509 309.157 238.509C309.156 238.509 309.156 238.509 309.155 238.509C309.155 238.509 309.155 238.509 309.154 238.509C309.154 238.509 309.153 238.509 309.153 238.509C309.152 238.509 309.152 238.509 309.151 238.509C309.151 238.509 309.151 238.509 309.15 238.509C309.15 238.509 309.149 238.509 309.149 238.509C309.148 238.509 309.148 238.509 309.147 238.509C309.147 238.509 309.147 238.509 309.146 238.509C309.146 238.509 309.145 238.509 309.145 238.509C309.144 238.509 309.144 238.509 309.143 238.509C309.143 238.509 309.142 238.509 309.142 238.509C309.142 238.509 309.141 238.509 309.141 238.509C309.14 238.509 309.14 238.509 309.139 238.509C309.139 238.509 309.138 238.509 309.138 238.509C309.137 238.509 309.137 238.509 309.137 238.509C309.136 238.509 309.136 238.509 309.135 238.509C309.135 238.509 309.134 238.509 309.134 238.509C309.133 238.509 309.133 238.509 309.132 238.509C309.132 238.509 309.131 238.509 309.131 238.509C309.131 238.509 309.13 238.509 309.13 238.509C309.129 238.509 309.129 238.509 309.128 238.509C309.128 238.509 309.127 238.509 309.127 238.509C309.126 238.509 309.126 238.509 309.125 238.509C309.125 238.509 309.124 238.509 309.124 238.509C309.124 238.509 309.123 238.509 309.123 238.509C309.122 238.509 309.122 238.509 309.121 238.509C309.121 238.509 309.12 238.509 309.12 238.509C309.119 238.509 309.119 238.509 309.118 238.509C309.118 238.509 309.117 238.509 309.117 238.509C309.116 238.509 309.116 238.509 309.115 238.509C309.115 238.509 309.115 238.509 309.114 238.509C309.114 238.509 309.113 238.509 309.113 238.509C309.112 238.509 309.112 238.509 309.111 238.509C309.111 238.509 309.11 238.509 309.11 238.509C309.109 238.509 309.109 238.509 309.108 238.509C309.108 238.509 309.107 238.509 309.107 238.509C309.106 238.509 309.106 238.509 309.105 238.509C309.105 238.509 309.104 238.509 309.104 238.509C309.103 238.509 309.103 238.509 309.102 238.509C309.102 238.509 309.101 238.509 309.101 238.509C309.1 238.509 309.1 238.509 309.1 238.509C309.099 238.509 309.099 238.509 309.098 238.509C309.098 238.509 309.097 238.509 309.097 238.509C309.096 238.509 309.096 238.509 309.095 238.509C309.095 238.509 309.094 238.509 309.094 238.509C309.093 238.509 309.093 238.509 309.092 238.509C309.092 238.509 309.091 238.509 309.091 238.509C309.09 238.509 309.09 238.509 309.089 238.509C309.089 238.509 309.088 238.509 309.088 238.509C309.087 238.509 309.087 238.509 309.086 238.509C309.086 238.509 309.085 238.509 309.085 238.509C309.084 238.509 309.084 238.509 309.083 238.509C309.083 238.509 309.082 238.509 309.082 238.509C309.081 238.509 309.081 238.509 309.08 238.509C309.08 238.509 309.079 238.509 309.079 238.509C309.078 238.509 309.078 238.509 309.077 238.509C309.077 238.509 309.076 238.509 309.076 238.509C309.075 238.509 309.074 238.509 309.074 238.509C309.073 238.509 309.073 238.509 309.072 238.509C309.072 238.509 309.071 238.509 309.071 238.509C309.07 238.509 309.07 238.509 309.069 238.509C309.069 238.509 309.068 238.509 309.068 238.509C309.067 238.509 309.067 238.509 309.066 238.509C309.066 238.509 309.065 238.509 309.065 238.509C309.064 238.509 309.064 238.509 309.063 238.509C309.063 238.509 309.062 238.509 309.062 238.509C309.061 238.509 309.061 238.509 309.06 238.509C309.06 238.509 309.059 238.509 309.058 238.509C309.058 238.509 309.057 238.509 309.057 238.509C309.056 238.509 309.056 238.509 309.055 238.509C309.055 238.509 309.054 238.509 309.054 238.509C309.053 238.509 309.053 238.509 309.052 238.509C309.052 238.509 309.051 238.509 309.051 238.509C309.05 238.509 309.05 238.509 309.049 238.509C309.048 238.509 309.048 238.509 309.047 238.509C309.047 238.509 309.046 238.509 309.046 238.509C309.045 238.509 309.045 238.509 309.044 238.509C309.044 238.509 309.043 238.509 309.043 238.509C309.042 238.509 309.042 238.509 309.041 238.509C309.04 238.509 309.04 238.509 309.039 238.509C309.039 238.509 309.038 238.509 309.038 238.509C309.037 238.509 309.037 238.509 309.036 238.509C309.036 238.509 309.035 238.509 309.035 238.509C309.034 238.509 309.033 238.509 309.033 238.509C309.032 238.509 309.032 238.509 309.031 238.509C309.031 238.509 309.03 238.509 309.03 238.509C309.029 238.509 309.029 238.509 309.028 238.509C309.027 238.509 309.027 238.509 309.026 238.509C309.026 238.509 309.025 238.509 309.025 238.509C309.024 238.509 309.024 238.509 309.023 238.509C309.022 238.509 309.022 238.509 309.021 238.509C309.021 238.509 309.02 238.509 309.02 238.509C309.019 238.509 309.019 238.509 309.018 238.509C309.018 238.509 309.017 238.509 309.016 238.509C309.016 238.509 309.015 238.509 309.015 238.509C309.014 238.509 309.014 238.509 309.013 238.509C309.013 238.509 309.012 238.509 309.011 238.509C309.011 238.509 309.01 238.509 309.01 238.509C309.009 238.509 309.009 238.509 309.008 238.509C309.007 238.509 309.007 238.509 309.006 238.509C309.006 238.509 309.005 238.509 309.005 238.509C309.004 238.509 309.004 238.509 309.003 238.509C309.002 238.509 309.002 238.509 309.001 238.509C309.001 238.509 309 238.509 309 238.509C308.999 238.509 308.998 238.509 308.998 238.509C308.997 238.509 308.997 238.509 308.996 238.509C308.996 238.509 308.995 238.509 308.994 238.509C308.994 238.509 308.993 238.509 308.993 238.509C308.992 238.509 308.992 238.509 308.991 238.509C308.99 238.509 308.99 238.509 308.989 238.509C308.989 238.509 308.988 238.509 308.988 238.509C308.987 238.509 308.986 238.509 308.986 238.509C308.985 238.509 308.985 238.509 308.984 238.509C308.984 238.509 308.983 238.509 308.982 238.509C308.982 238.509 308.981 238.509 308.981 238.509C308.98 238.509 308.98 238.509 308.979 238.509C308.978 238.509 308.978 238.509 308.977 238.509C308.977 238.509 308.976 238.509 308.975 238.509C308.975 238.509 308.974 238.509 308.974 238.509C308.973 238.509 308.973 238.509 308.972 238.509C308.971 238.509 308.971 238.509 308.97 238.509C308.97 238.509 308.969 238.509 308.968 238.509C308.968 238.509 308.967 238.509 308.967 238.509C308.966 238.509 308.965 238.509 308.965 238.509C308.964 238.509 308.964 238.509 308.963 238.509C308.962 238.509 308.962 238.509 308.961 238.509C308.961 238.509 308.96 238.509 308.96 238.509C308.959 238.509 308.958 238.509 308.958 238.509C308.957 238.509 308.957 238.509 308.956 238.509C308.955 238.509 308.955 238.509 308.954 238.509C308.954 238.509 308.953 238.509 308.952 238.509C308.952 238.509 308.951 238.509 308.951 238.509C308.95 238.509 308.949 238.509 308.949 238.509C308.948 238.509 308.948 238.509 308.947 238.509C308.946 238.509 308.946 238.509 308.945 238.509C308.945 238.509 308.944 238.509 308.943 238.509C308.943 238.509 308.942 238.509 308.941 238.509C308.941 238.509 308.94 238.509 308.94 238.509C308.939 238.509 308.938 238.509 308.938 238.509C308.937 238.509 308.937 238.509 308.936 238.509C308.935 238.509 308.935 238.509 308.934 238.509C308.934 238.509 308.933 238.509 308.932 238.509C308.932 238.509 308.931 238.509 308.93 238.509C308.93 238.509 308.929 238.509 308.929 238.509C308.928 238.509 308.927 238.509 308.927 238.509C308.926 238.509 308.926 238.509 308.925 238.509C308.924 238.509 308.924 238.509 308.923 238.509C308.922 238.509 308.922 238.509 308.921 238.509C308.921 238.509 308.92 238.509 308.919 238.509C308.919 238.509 308.918 238.509 308.918 238.509C308.917 238.509 308.916 238.509 308.916 238.509C308.915 238.509 308.914 238.509 308.914 238.509C308.913 238.509 308.913 238.509 308.912 238.509C308.911 238.509 308.911 238.509 308.91 238.509C308.909 238.509 308.909 238.509 308.908 238.509C308.907 238.509 308.907 238.509 308.906 238.509C308.906 238.509 308.905 238.509 308.904 238.509C308.904 238.509 308.903 238.509 308.902 238.509C308.902 238.509 308.901 238.509 308.901 238.509C308.9 238.509 308.899 238.509 308.899 238.509C308.898 238.509 308.897 238.509 308.897 238.509C308.896 238.509 308.895 238.509 308.895 238.509C308.894 238.509 308.894 238.509 308.893 238.509C308.892 238.509 308.892 238.509 308.891 238.509C308.89 238.509 308.89 238.509 308.889 238.509C308.888 238.509 308.888 238.509 308.887 238.509C308.887 238.509 308.886 238.509 308.885 238.509C308.885 238.509 308.884 238.509 308.883 238.509C308.883 238.509 308.882 238.509 308.881 238.509C308.881 238.509 308.88 238.509 308.879 238.509C308.879 238.509 308.878 238.509 308.877 238.509C308.877 238.509 308.876 238.509 308.876 238.509C308.875 238.509 308.874 238.509 308.874 238.509C308.873 238.509 308.872 238.509 308.872 238.509C308.871 238.509 308.87 238.509 308.87 238.509C308.869 238.509 308.868 238.509 308.868 238.509C308.867 238.509 308.866 238.509 308.866 238.509C308.865 238.509 308.864 238.509 308.864 238.509C308.863 238.509 308.862 238.509 308.862 238.509C308.861 238.509 308.86 238.509 308.86 238.509C308.859 238.509 308.859 238.509 308.858 238.509C308.857 238.509 308.857 238.509 308.856 238.509C308.855 238.509 308.855 238.509 308.854 238.509C308.853 238.509 308.853 238.509 308.852 238.509C308.851 238.509 308.851 238.509 308.85 238.509C308.849 238.509 308.849 238.509 308.848 238.509C308.847 238.509 308.847 238.509 308.846 238.509C308.845 238.509 308.845 238.509 308.844 238.509C308.843 238.509 308.843 238.509 308.842 238.509C308.841 238.509 308.841 238.509 308.84 238.509C308.839 238.509 308.839 238.509 308.838 238.509C308.837 238.509 308.837 238.509 308.836 238.509C308.835 238.509 308.834 238.509 308.834 238.509C308.833 238.509 308.832 238.509 308.832 238.509C308.831 238.509 308.83 238.509 308.83 238.509C308.829 238.509 308.828 238.509 308.828 238.509C308.827 238.509 308.826 238.509 308.826 238.509C308.825 238.509 308.824 238.509 308.824 238.509C308.823 238.509 308.822 238.509 308.822 238.509C308.821 238.509 308.82 238.509 308.82 238.509C308.819 238.509 308.818 238.509 308.818 238.509C308.817 238.509 308.816 238.509 308.815 238.509C308.815 238.509 308.814 238.509 308.813 238.509C308.813 238.509 308.812 238.509 308.811 238.509C308.811 238.509 308.81 238.509 308.809 238.509C308.809 238.509 308.808 238.509 308.807 238.509C308.806 238.509 308.806 238.509 308.805 238.509C308.804 238.509 308.804 238.509 308.803 238.509C308.802 238.509 308.802 238.509 308.801 238.509C308.8 238.509 308.8 238.509 308.799 238.509C308.798 238.509 308.797 238.509 308.797 238.509C308.796 238.509 308.795 238.509 308.795 238.509C308.794 238.509 308.793 238.509 308.793 238.509C308.792 238.509 308.791 238.509 308.79 238.509C308.79 238.509 308.789 238.509 308.788 238.509C308.788 238.509 308.787 238.509 308.786 238.509C308.786 238.509 308.785 238.509 308.784 238.509C308.783 238.509 308.783 238.509 308.782 238.509C308.781 238.509 308.781 238.509 308.78 238.509C308.779 238.509 308.779 238.509 308.778 238.509C308.777 238.509 308.776 238.509 308.776 238.509C308.775 238.509 308.774 238.509 308.774 238.509C308.773 238.509 308.772 238.509 308.771 238.509C308.771 238.509 308.77 238.509 308.769 238.509C308.769 238.509 308.768 238.509 308.767 238.509C308.766 238.509 308.766 238.509 308.765 238.509C308.764 238.509 308.764 238.509 308.763 238.509C308.762 238.509 308.761 238.509 308.761 238.509C308.76 238.509 308.759 238.509 308.759 238.509C308.758 238.509 308.757 238.509 308.756 238.509C308.756 238.509 308.755 238.509 308.754 238.509C308.754 238.509 308.753 238.509 308.752 238.509C308.751 238.509 308.751 238.509 308.75 238.509C308.749 238.509 308.748 238.509 308.748 238.509C308.747 238.509 308.746 238.509 308.746 238.509C308.745 238.509 308.744 238.509 308.743 238.509C308.743 238.509 308.742 238.509 308.741 238.509C308.74 238.509 308.74 238.509 308.739 238.509C308.738 238.509 308.738 238.509 308.737 238.509C308.736 238.509 308.735 238.509 308.735 238.509C308.734 238.509 308.733 238.509 308.732 238.509C308.732 238.509 308.731 238.509 308.73 238.509C308.73 238.509 308.729 238.509 308.728 238.509C308.727 238.509 308.727 238.509 308.726 238.509C308.725 238.509 308.724 238.509 308.724 238.509C308.723 238.509 308.722 238.509 308.721 238.509C308.721 238.509 308.72 238.509 308.719 238.509C308.718 238.509 308.718 238.509 308.717 238.509C308.716 238.509 308.715 238.509 308.715 238.509C308.714 238.509 308.713 238.509 308.712 238.509C308.712 238.509 308.711 238.509 308.71 238.509C308.71 238.509 308.709 238.509 308.708 238.509C308.707 238.509 308.707 238.509 308.706 238.509C308.705 238.509 308.704 238.509 308.704 238.509C308.703 238.509 308.702 238.509 308.701 238.509C308.701 238.509 308.7 238.509 308.699 238.509C308.698 238.509 308.698 238.509 308.697 238.509C308.696 238.509 308.695 238.509 308.695 238.509C308.694 238.509 308.693 238.509 308.692 238.509C308.692 238.509 308.691 238.509 308.69 238.509C308.689 238.509 308.688 238.509 308.688 238.509C308.687 238.509 308.686 238.509 308.685 238.509C308.685 238.509 308.684 238.509 308.683 238.509C308.682 238.509 308.682 238.509 308.681 238.509C308.68 238.509 308.679 238.509 308.679 238.509C308.678 238.509 308.677 238.509 308.676 238.509C308.676 238.509 308.675 238.509 308.674 238.509C308.673 238.509 308.672 238.509 308.672 238.509C308.671 238.509 308.67 238.509 308.669 238.509C308.669 238.509 308.668 238.509 308.667 238.509C308.666 238.509 308.666 238.509 308.665 238.509C308.664 238.509 308.663 238.509 308.663 238.509C308.662 238.509 308.661 238.509 308.66 238.509C308.659 238.509 308.659 238.509 308.658 238.509C308.657 238.509 308.656 238.509 308.656 238.509C308.655 238.509 308.654 238.509 308.653 238.509C308.652 238.509 308.652 238.509 308.651 238.509C308.65 238.509 308.649 238.509 308.649 238.509C308.648 238.509 308.647 238.509 308.646 238.509C308.645 238.509 308.645 238.509 308.644 238.509C308.643 238.509 308.642 238.509 308.642 238.509C308.641 238.509 308.64 238.509 308.639 238.509C308.638 238.509 308.638 238.509 308.637 238.509C308.636 238.509 308.635 238.509 308.635 238.509C308.634 238.509 308.633 238.509 308.632 238.509C308.631 238.509 308.631 238.509 308.63 238.509C308.629 238.509 308.628 238.509 308.627 238.509C308.627 238.509 308.626 238.509 308.625 238.509C308.624 238.509 308.623 238.509 308.623 238.509C308.622 238.509 308.621 238.509 308.62 238.509C308.62 238.509 308.619 238.509 308.618 238.509C308.617 238.509 308.616 238.509 308.616 238.509C308.615 238.509 308.614 238.509 308.613 238.509C308.612 238.509 308.612 238.509 308.611 238.509C308.61 238.509 308.609 238.509 308.608 238.509C308.608 238.509 308.607 238.509 308.606 238.509C308.605 238.509 308.604 238.509 308.604 238.509C308.603 238.509 308.602 238.509 308.601 238.509C308.6 238.509 308.6 238.509 308.599 238.509C308.598 238.509 308.597 238.509 308.596 238.509C308.596 238.509 308.595 238.509 308.594 238.509C308.593 238.509 308.592 238.509 308.592 238.509C308.591 238.509 308.59 238.509 308.589 238.509C308.588 238.509 308.587 238.509 308.587 238.509C308.586 238.509 308.585 238.509 308.584 238.509C308.583 238.509 308.583 238.509 308.582 238.509C308.581 238.509 308.58 238.509 308.579 238.509C308.579 238.509 308.578 238.509 308.577 238.509C308.576 238.509 308.575 238.509 308.574 238.509C308.574 238.509 308.573 238.509 308.572 238.509C308.571 238.509 308.57 238.509 308.57 238.509C308.569 238.509 308.568 238.509 308.567 238.509C308.566 238.509 308.565 238.509 308.565 238.509C308.564 238.509 308.563 238.509 308.562 238.509C308.561 238.509 308.561 238.509 308.56 238.509C308.559 238.509 308.558 238.509 308.557 238.509C308.556 238.509 308.556 238.509 308.555 238.509C308.554 238.509 308.553 238.509 308.552 238.509C308.551 238.509 308.551 238.509 308.55 238.509C308.549 238.509 308.548 238.509 308.547 238.509C308.547 238.509 308.546 238.509 308.545 238.509C308.544 238.509 308.543 238.509 308.542 238.509C308.542 238.509 308.541 238.509 308.54 238.509C308.539 238.509 308.538 238.509 308.537 238.509C308.537 238.509 308.536 238.509 308.535 238.509C308.534 238.509 308.533 238.509 308.532 238.509C308.532 238.509 308.531 238.509 308.53 238.509C308.529 238.509 308.528 238.509 308.527 238.509C308.526 238.509 308.526 238.509 308.525 238.509C308.524 238.509 308.523 238.509 308.522 238.509C308.521 238.509 308.521 238.509 308.52 238.509C308.519 238.509 308.518 238.509 308.517 238.509C308.516 238.509 308.516 238.509 308.515 238.509C308.514 238.509 308.513 238.509 308.512 238.509C308.511 238.509 308.51 238.509 308.51 238.509C308.509 238.509 308.508 238.509 308.507 238.509C308.506 238.509 308.505 238.509 308.505 238.509C308.504 238.509 308.503 238.509 308.502 238.509C308.501 238.509 308.5 238.509 308.499 238.509C308.499 238.509 308.498 238.509 308.497 238.509C308.496 238.509 308.495 238.509 308.494 238.509C308.493 238.509 308.493 238.509 308.492 238.509C308.491 238.509 308.49 238.509 308.489 238.509C308.488 238.509 308.487 238.509 308.487 238.509C308.486 238.509 308.485 238.509 308.484 238.509C308.483 238.509 308.482 238.509 308.481 238.509C308.481 238.509 308.48 238.509 308.479 238.509C308.478 238.509 308.477 238.509 308.476 238.509C308.475 238.509 308.475 238.509 308.474 238.509C308.473 238.509 308.472 238.509 308.471 238.509C308.47 238.509 308.469 238.509 308.469 238.509C308.468 238.509 308.467 238.509 308.466 238.509C308.465 238.509 308.464 238.509 308.463 238.509C308.462 238.509 308.462 238.509 308.461 238.509C308.46 238.509 308.459 238.509 308.458 238.509C308.457 238.509 308.456 238.509 308.455 238.509C308.455 238.509 308.454 238.509 308.453 238.509C308.452 238.509 308.451 238.509 308.45 238.509C308.449 238.509 308.448 238.509 308.448 238.509C308.447 238.509 308.446 238.509 308.445 238.509C308.444 238.509 308.443 238.509 308.442 238.509C308.441 238.509 308.441 238.509 308.44 238.509C308.439 238.509 308.438 238.509 308.437 238.509C308.436 238.509 308.435 238.509 308.434 238.509C308.434 238.509 308.433 238.509 308.432 238.509C308.431 238.509 308.43 238.509 308.429 238.509C308.428 238.509 308.427 238.509 308.426 238.509C308.426 238.509 308.425 238.509 308.424 238.509C308.423 238.509 308.422 238.509 308.421 238.509C308.42 238.509 308.419 238.509 308.418 238.509C308.418 238.509 308.417 238.509 308.416 238.509C308.415 238.509 308.414 238.509 308.413 238.509C308.412 238.509 308.411 238.509 308.41 238.509C308.41 238.509 308.409 238.509 308.408 238.509C308.407 238.509 308.406 238.509 308.405 238.509C308.404 238.509 308.403 238.509 308.402 238.509C308.401 238.509 308.401 238.509 308.4 238.509C308.399 238.509 308.398 238.509 308.397 238.509C308.396 238.509 308.395 238.509 308.394 238.509C308.393 238.509 308.392 238.509 308.392 238.509C308.391 238.509 308.39 238.509 308.389 238.509C308.388 238.509 308.387 238.509 308.386 238.509C308.385 238.509 308.384 238.509 308.383 238.509C308.383 238.509 308.382 238.509 308.381 238.509C308.38 238.509 308.379 238.509 308.378 238.509C308.377 238.509 308.376 238.509 308.375 238.509C308.374 238.509 308.373 238.509 308.373 238.509C308.372 238.509 308.371 238.509 308.37 238.509C308.369 238.509 308.368 238.509 308.367 238.509C308.366 238.509 308.365 238.509 308.364 238.509C308.363 238.509 308.363 238.509 308.362 238.509C308.361 238.509 308.36 238.509 308.359 238.509C308.358 238.509 308.357 238.509 308.356 238.509C308.355 238.509 308.354 238.509 308.353 238.509C308.352 238.509 308.352 238.509 308.351 238.509C308.35 238.509 308.349 238.509 308.348 238.509C308.347 238.509 308.346 238.509 308.345 238.509C308.344 238.509 308.343 238.509 308.342 238.509C308.341 238.509 308.34 238.509 308.34 238.509C308.339 238.509 308.338 238.509 308.337 238.509C308.336 238.509 308.335 238.509 308.334 238.509C308.333 238.509 308.332 238.509 308.331 238.509C308.33 238.509 308.329 238.509 308.328 238.509C308.327 238.509 308.327 238.509 308.326 238.509C308.325 238.509 308.324 238.509 308.323 238.509C308.322 238.509 308.321 238.509 308.32 238.509C308.319 238.509 308.318 238.509 308.317 238.509C308.316 238.509 308.315 238.509 308.314 238.509C308.313 238.509 308.313 238.509 308.312 238.509C308.311 238.509 308.31 238.509 308.309 238.509C308.308 238.509 308.307 238.509 308.306 238.509C308.305 238.509 308.304 238.509 308.303 238.509C308.302 238.509 308.301 238.509 308.3 238.509C308.299 238.509 308.298 238.509 308.298 238.509C308.297 238.509 308.296 238.509 308.295 238.509C308.294 238.509 308.293 238.509 308.292 238.509C308.291 238.509 308.29 238.509 308.289 238.509C308.288 238.509 308.287 238.509 308.286 238.509C308.285 238.509 308.284 238.509 308.283 238.509C308.282 238.509 308.281 238.509 308.28 238.509C308.28 238.509 308.279 238.509 308.278 238.509C308.277 238.509 308.276 238.509 308.275 238.509C308.274 238.509 308.273 238.509 308.272 238.509C308.271 238.509 308.27 238.509 308.269 238.509C308.268 238.509 308.267 238.509 308.266 238.509C308.265 238.509 308.264 238.509 308.263 238.509C308.262 238.509 308.261 238.509 308.26 238.509C308.259 238.509 308.259 238.509 308.258 238.509C308.257 238.509 308.256 238.509 308.255 238.509C308.254 238.509 308.253 238.509 308.252 238.509C308.251 238.509 308.25 238.509 308.249 238.509C308.248 238.509 308.247 238.509 308.246 238.509C308.245 238.509 308.244 238.509 308.243 238.509C308.242 238.509 308.241 238.509 308.24 238.509C308.239 238.509 308.238 238.509 308.237 238.509C308.236 238.509 308.235 238.509 308.234 238.509C308.233 238.509 308.232 238.509 308.231 238.509C308.231 238.509 308.23 238.509 308.229 238.509C308.228 238.509 308.227 238.509 308.226 238.509C308.225 238.509 308.224 238.509 308.223 238.509C308.222 238.509 308.221 238.509 308.22 238.509C308.219 238.509 308.218 238.509 308.217 238.509C308.216 238.509 308.215 238.509 308.214 238.509C308.213 238.509 308.212 238.509 308.211 238.509C308.21 238.509 308.209 238.509 308.208 238.509C308.207 238.509 308.206 238.509 308.205 238.509C308.204 238.509 308.203 238.509 308.202 238.509C308.201 238.509 308.2 238.509 308.199 238.509C308.198 238.509 308.197 238.509 308.196 238.509C308.195 238.509 308.194 238.509 308.193 238.509C308.192 238.509 308.191 238.509 308.19 238.509C308.189 238.509 308.188 238.509 308.187 238.509C308.186 238.509 308.185 238.509 308.184 238.509C308.183 238.509 308.182 238.509 308.181 238.509C308.18 238.509 308.179 238.509 308.178 238.509C308.177 238.509 308.176 238.509 308.175 238.509C308.174 238.509 308.173 238.509 308.172 238.509C308.172 238.509 308.171 238.509 308.17 238.509C308.169 238.509 308.168 238.509 308.167 238.509C308.166 238.509 308.165 238.509 308.164 238.509C308.163 238.509 308.162 238.509 308.161 238.509C308.16 238.509 308.159 238.509 308.158 238.509C308.157 238.509 308.156 238.509 308.155 238.509C308.154 238.509 308.153 238.509 308.152 238.509C308.151 238.509 308.15 238.509 308.148 238.509C308.147 238.509 308.146 238.509 308.145 238.509C308.144 238.509 308.143 238.509 308.142 238.509C308.141 238.509 308.14 238.509 308.139 238.509C308.138 238.509 308.137 238.509 308.136 238.509C308.135 238.509 308.134 238.509 308.133 238.509C308.132 238.509 308.131 238.509 308.13 238.509C308.129 238.509 308.128 238.509 308.127 238.509C308.126 238.509 308.125 238.509 308.124 238.509C308.123 238.509 308.122 238.509 308.121 238.509C308.12 238.509 308.119 238.509 308.118 238.509C308.117 238.509 308.116 238.509 308.115 238.509C308.114 238.509 308.113 238.509 308.112 238.509C308.111 238.509 308.11 238.509 308.109 238.509C308.108 238.509 308.107 238.509 308.106 238.509C308.105 238.509 308.104 238.509 308.103 238.509C308.102 238.509 308.101 238.509 308.1 238.509C308.099 238.509 308.098 238.509 308.097 238.509C308.096 238.509 308.095 238.509 308.094 238.509C308.093 238.509 308.092 238.509 308.091 238.509C308.09 238.509 308.089 238.509 308.087 238.509C308.086 238.509 308.085 238.509 308.084 238.509C308.083 238.509 308.082 238.509 308.081 238.509C308.08 238.509 308.079 238.509 308.078 238.509C308.077 238.509 308.076 238.509 308.075 238.509C308.074 238.509 308.073 238.509 308.072 238.509V240.509ZM309.185 240.509C311.94 240.509 314.313 240.051 316.257 239.078L315.363 237.29C313.774 238.084 311.73 238.509 309.185 238.509V240.509ZM316.271 239.071C318.165 238.087 319.704 236.785 320.864 235.161L319.236 233.999C318.276 235.343 316.988 236.444 315.349 237.297L316.271 239.071ZM320.861 235.165C322.04 233.529 322.869 231.656 323.356 229.559L321.408 229.107C320.976 230.967 320.25 232.592 319.239 233.995L320.861 235.165ZM323.357 229.555C323.834 227.463 324.071 225.268 324.071 222.973H322.071C322.071 225.13 321.848 227.175 321.407 229.111L323.357 229.555ZM324.071 222.973C324.071 221.153 323.829 219.287 323.352 217.377L321.412 217.863C321.853 219.628 322.071 221.331 322.071 222.973H324.071ZM323.356 217.395C322.903 215.429 322.088 213.628 320.914 212L319.292 213.17C320.309 214.58 321.013 216.136 321.408 217.845L323.356 217.395ZM320.914 212C319.718 210.341 318.126 209.006 316.165 207.988L315.243 209.762C316.956 210.652 318.297 211.79 319.292 213.17L320.914 212ZM316.165 207.988C314.144 206.938 311.659 206.444 308.761 206.444V208.444C311.445 208.444 313.589 208.904 315.243 209.762L316.165 207.988ZM324.812 254.9H325.812V253.9H324.812V254.9ZM324.812 263.592V264.592H325.812V263.592H324.812ZM321.42 263.592H320.42V264.592H321.42V263.592ZM321.42 259.034H322.42V258.647L322.16 258.361L321.42 259.034ZM320.36 257.868L321.1 257.195L320.802 256.868H320.36V257.868ZM307.375 257.868V256.868H306.375V257.868H307.375ZM307.375 271.595H306.375V272.595H307.375V271.595ZM316.332 271.595V272.595H316.746L317.039 272.302L316.332 271.595ZM317.127 270.8L317.834 271.507L318.127 271.214V270.8H317.127ZM317.127 268.574V267.574H316.127V268.574H317.127ZM320.519 268.574H321.519V267.574H320.519V268.574ZM320.519 277.637V278.637H321.519V277.637H320.519ZM317.127 277.637H316.127V278.637H317.127V277.637ZM317.127 275.411H318.127V275.016L317.856 274.727L317.127 275.411ZM316.332 274.563L317.061 273.879L316.765 273.563H316.332V274.563ZM307.375 274.563V273.563H306.375V274.563H307.375ZM307.375 289.032H306.375V290.032H307.375V289.032ZM321.261 289.032V290.032H321.675L321.968 289.739L321.261 289.032ZM322.321 287.972L323.028 288.679L323.321 288.386V287.972H322.321ZM322.321 282.778V281.778H321.321V282.778H322.321ZM325.713 282.778H326.713V281.778H325.713V282.778ZM325.713 292V293H326.713V292H325.713ZM296.616 292H295.616V293H296.616V292ZM296.616 289.032V288.032H295.616V289.032H296.616ZM301.439 289.032V290.032H302.439V289.032H301.439ZM301.439 257.868H302.439V256.868H301.439V257.868ZM296.616 257.868H295.616V258.868H296.616V257.868ZM296.616 254.9V253.9H295.616V254.9H296.616ZM323.812 254.9V263.592H325.812V254.9H323.812ZM324.812 262.592H321.42V264.592H324.812V262.592ZM322.42 263.592V259.034H320.42V263.592H322.42ZM322.16 258.361L321.1 257.195L319.62 258.541L320.68 259.707L322.16 258.361ZM320.36 256.868H307.375V258.868H320.36V256.868ZM306.375 257.868V271.595H308.375V257.868H306.375ZM307.375 272.595H316.332V270.595H307.375V272.595ZM317.039 272.302L317.834 271.507L316.42 270.093L315.625 270.888L317.039 272.302ZM318.127 270.8V268.574H316.127V270.8H318.127ZM317.127 269.574H320.519V267.574H317.127V269.574ZM319.519 268.574V277.637H321.519V268.574H319.519ZM320.519 276.637H317.127V278.637H320.519V276.637ZM318.127 277.637V275.411H316.127V277.637H318.127ZM317.856 274.727L317.061 273.879L315.602 275.247L316.397 276.095L317.856 274.727ZM316.332 273.563H307.375V275.563H316.332V273.563ZM306.375 274.563V289.032H308.375V274.563H306.375ZM307.375 290.032H321.261V288.032H307.375V290.032ZM321.968 289.739L323.028 288.679L321.614 287.265L320.554 288.325L321.968 289.739ZM323.321 287.972V282.778H321.321V287.972H323.321ZM322.321 283.778H325.713V281.778H322.321V283.778ZM324.713 282.778V292H326.713V282.778H324.713ZM325.713 291H296.616V293H325.713V291ZM297.616 292V289.032H295.616V292H297.616ZM296.616 290.032H301.439V288.032H296.616V290.032ZM302.439 289.032V257.868H300.439V289.032H302.439ZM301.439 256.868H296.616V258.868H301.439V256.868ZM297.616 257.868V254.9H295.616V257.868H297.616ZM296.616 255.9H324.812V253.9H296.616V255.9ZM324.098 307.868L325.043 308.193L325.499 306.868H324.098V307.868ZM319.275 307.868H318.275V308.868H319.275V307.868ZM319.275 304.9V303.9H318.275V304.9H319.275ZM332.419 304.9H333.419V303.9H332.419V304.9ZM332.419 307.868V308.868H333.419V307.868H332.419ZM328.073 307.868V306.868H327.37L327.132 307.529L328.073 307.868ZM315.777 342V343H316.479L316.717 342.339L315.777 342ZM309.894 342L308.966 342.374L309.219 343H309.894V342ZM296.114 307.868L297.041 307.494L296.788 306.868H296.114V307.868ZM291.556 307.868H290.556V308.868H291.556V307.868ZM291.556 304.9V303.9H290.556V304.9H291.556ZM307.827 304.9H308.827V303.9H307.827V304.9ZM307.827 307.868V308.868H308.827V307.868H307.827ZM302.739 307.868V306.868H301.282L301.806 308.228L302.739 307.868ZM312.279 332.619L313.235 332.327L313.225 332.293L313.212 332.259L312.279 332.619ZM313.816 337.654L312.859 337.946L313.075 338.654H313.816V337.654ZM314.028 337.654V338.654H314.765L314.983 337.949L314.028 337.654ZM315.618 332.513L314.672 332.188L314.667 332.203L314.662 332.218L315.618 332.513ZM324.098 306.868H319.275V308.868H324.098V306.868ZM320.275 307.868V304.9H318.275V307.868H320.275ZM319.275 305.9H332.419V303.9H319.275V305.9ZM331.419 304.9V307.868H333.419V304.9H331.419ZM332.419 306.868H328.073V308.868H332.419V306.868ZM327.132 307.529L314.836 341.661L316.717 342.339L329.013 308.207L327.132 307.529ZM315.777 341H309.894V343H315.777V341ZM310.821 341.626L297.041 307.494L295.186 308.242L308.966 342.374L310.821 341.626ZM296.114 306.868H291.556V308.868H296.114V306.868ZM292.556 307.868V304.9H290.556V307.868H292.556ZM291.556 305.9H307.827V303.9H291.556V305.9ZM306.827 304.9V307.868H308.827V304.9H306.827ZM307.827 306.868H302.739V308.868H307.827V306.868ZM301.806 308.228L311.346 332.979L313.212 332.259L303.672 307.508L301.806 308.228ZM311.322 332.911L312.859 337.946L314.772 337.362L313.235 332.327L311.322 332.911ZM313.816 338.654H314.028V336.654H313.816V338.654ZM314.983 337.949L316.573 332.808L314.662 332.218L313.072 337.359L314.983 337.949ZM316.563 332.838L325.043 308.193L323.152 307.543L314.672 332.188L316.563 332.838Z" fill="#F1F1F1"/>
<g filter="url(#filter1_f)">
<path d="M76 204.782L204 432L104.775 204.782L171.256 79L76 204.782Z" fill="#834E94"/>
<path d="M76 204.782L204 432L104.775 204.782L171.256 79L76 204.782Z" stroke="#834E94"/>
</g>
<defs>
<filter id="filter0_f" x="167.898" y="138.297" width="182.889" height="222.703" filterUnits="userSpaceOnUse" color-interpolation-filters="sRGB">
<feFlood flood-opacity="0" result="BackgroundImageFix"/>
<feBlend mode="normal" in="SourceGraphic" in2="BackgroundImageFix" result="shape"/>
<feGaussianBlur stdDeviation="2" result="effect1_foregroundBlur"/>
</filter>
<filter id="filter1_f" x="71.4034" y="74.6982" width="137.055" height="361.547" filterUnits="userSpaceOnUse" color-interpolation-filters="sRGB">
<feFlood flood-opacity="0" result="BackgroundImageFix"/>
<feBlend mode="normal" in="SourceGraphic" in2="BackgroundImageFix" result="shape"/>
<feGaussianBlur stdDeviation="2" result="effect1_foregroundBlur"/>
</filter>
</defs>
</svg>
