<svg width="700" height="700" viewBox="0 0 700 700" fill="none" xmlns="http://www.w3.org/2000/svg">
<g clip-path="url(#clip0)">
<path d="M173.435 134.093C178.102 166.803 182.341 204.166 185.725 243.32C225.443 234.704 267.313 232.298 318.512 234.421C239.82 426.482 274.884 521.132 344.44 672.902C348.504 672.922 352.59 672.893 356.695 672.813C356.427 614.051 357.412 547.701 360.544 531.55C369.743 439.665 397.865 355.349 478.898 234.421L632.507 311.628C632.507 311.628 618.552 214.908 606.182 144.083C574.088 114.249 536.078 89.1236 495.948 68.6365C403.398 66.1886 327.239 78.7652 210.083 115.102C196.013 121.852 184.01 128.055 173.435 134.093Z" fill="#969ABB"/>
<path d="M173.435 134.093C178.102 166.803 182.341 204.166 185.725 243.32C225.443 234.704 267.313 232.298 318.512 234.421C239.82 426.482 274.884 521.132 344.44 672.902C348.504 672.922 352.59 672.893 356.695 672.813C356.427 614.051 357.412 547.701 360.544 531.55C369.743 439.665 397.865 355.349 478.898 234.421L632.507 311.628C632.507 311.628 618.552 214.908 606.182 144.083C574.088 114.249 536.078 89.1236 495.948 68.6365C403.398 66.1886 327.239 78.7652 210.083 115.102C196.013 121.852 184.01 128.055 173.435 134.093Z" fill="url(#paint0_linear)"/>
<path d="M173.435 134.093C178.102 166.803 182.341 204.166 185.725 243.32C225.443 234.704 267.313 232.298 318.512 234.421C239.82 426.482 274.884 521.132 344.44 672.902C348.504 672.922 352.59 672.893 356.695 672.813C356.427 614.051 357.412 547.701 360.544 531.55C369.743 439.665 397.865 355.349 478.898 234.421L632.507 311.628C632.507 311.628 618.552 214.908 606.182 144.083C574.088 114.249 536.078 89.1236 495.948 68.6365C403.398 66.1886 327.239 78.7652 210.083 115.102C196.013 121.852 184.01 128.055 173.435 134.093Z" fill="url(#paint1_linear)"/>
<path d="M173.435 134.093C178.102 166.803 182.341 204.166 185.725 243.32C225.443 234.704 267.313 232.298 318.512 234.421C239.82 426.482 274.884 521.132 344.44 672.902C348.504 672.922 352.59 672.893 356.695 672.813C356.427 614.051 357.412 547.701 360.544 531.55C369.743 439.665 397.865 355.349 478.898 234.421L632.507 311.628C632.507 311.628 618.552 214.908 606.182 144.083C574.088 114.249 536.078 89.1236 495.948 68.6365C403.398 66.1886 327.239 78.7652 210.083 115.102C196.013 121.852 184.01 128.055 173.435 134.093Z" fill="url(#paint2_linear)"/>
<path d="M495.948 68.6365C536.078 89.1236 574.088 114.249 606.182 144.083C600.607 112.164 595.354 85.5049 591.845 75.3293C556.938 71.7475 525.602 69.4208 495.948 68.6365Z" fill="#969ABB"/>
<path d="M495.948 68.6365C536.078 89.1236 574.088 114.249 606.182 144.083C600.607 112.164 595.354 85.5049 591.845 75.3293C556.938 71.7475 525.602 69.4208 495.948 68.6365Z" fill="url(#paint3_linear)"/>
<path d="M495.948 68.6365C536.078 89.1236 574.088 114.249 606.182 144.083C600.607 112.164 595.354 85.5049 591.845 75.3293C556.938 71.7475 525.602 69.4208 495.948 68.6365Z" fill="url(#paint4_linear)"/>
<path d="M495.948 68.6365C536.078 89.1236 574.088 114.249 606.182 144.083C600.607 112.164 595.354 85.5049 591.845 75.3293C556.938 71.7475 525.602 69.4208 495.948 68.6365Z" fill="url(#paint5_linear)"/>
<path d="M97.1349 196.988C44.5523 256.55 27.0256 283.092 0 328.005C72.7495 282.49 126.875 256.087 185.725 243.32C182.341 204.166 178.102 166.803 173.435 134.093C140.608 152.836 121.539 169.991 97.1349 196.988Z" fill="#969ABB"/>
<path d="M97.1349 196.988C44.5523 256.55 27.0256 283.092 0 328.005C72.7495 282.49 126.875 256.087 185.725 243.32C182.341 204.166 178.102 166.803 173.435 134.093C140.608 152.836 121.539 169.991 97.1349 196.988Z" fill="url(#paint6_linear)"/>
<path d="M97.1349 196.988C44.5523 256.55 27.0256 283.092 0 328.005C72.7495 282.49 126.875 256.087 185.725 243.32C182.341 204.166 178.102 166.803 173.435 134.093C140.608 152.836 121.539 169.991 97.1349 196.988Z" fill="url(#paint7_linear)"/>
<path d="M97.1349 196.988C44.5523 256.55 27.0256 283.092 0 328.005C72.7495 282.49 126.875 256.087 185.725 243.32C182.341 204.166 178.102 166.803 173.435 134.093C140.608 152.836 121.539 169.991 97.1349 196.988Z" fill="url(#paint8_linear)"/>
<path d="M632.507 311.628L478.898 234.421C578.292 311.628 564.738 531.55 360.544 531.55C357.412 547.701 356.427 614.051 356.695 672.813C481.615 670.357 624.46 619.841 684.463 435.626C724.892 311.503 682.075 214.63 606.182 144.083C618.552 214.908 632.507 311.628 632.507 311.628Z" fill="#969ABB"/>
<path d="M632.507 311.628L478.898 234.421C578.292 311.628 564.738 531.55 360.544 531.55C357.412 547.701 356.427 614.051 356.695 672.813C481.615 670.357 624.46 619.841 684.463 435.626C724.892 311.503 682.075 214.63 606.182 144.083C618.552 214.908 632.507 311.628 632.507 311.628Z" fill="url(#paint9_linear)"/>
<path d="M632.507 311.628L478.898 234.421C578.292 311.628 564.738 531.55 360.544 531.55C357.412 547.701 356.427 614.051 356.695 672.813C481.615 670.357 624.46 619.841 684.463 435.626C724.892 311.503 682.075 214.63 606.182 144.083C618.552 214.908 632.507 311.628 632.507 311.628Z" fill="url(#paint10_linear)"/>
<path d="M632.507 311.628L478.898 234.421C578.292 311.628 564.738 531.55 360.544 531.55C357.412 547.701 356.427 614.051 356.695 672.813C481.615 670.357 624.46 619.841 684.463 435.626C724.892 311.503 682.075 214.63 606.182 144.083C618.552 214.908 632.507 311.628 632.507 311.628Z" fill="url(#paint11_linear)"/>
<path d="M210.083 115.102C327.239 78.7652 403.398 66.1886 495.948 68.6365C334.056 -14.0121 137.652 -21.1716 155.868 42.5753C161.852 63.5204 167.94 95.5825 173.435 134.093C184.01 128.055 196.013 121.852 210.083 115.102Z" fill="#969ABB"/>
<path d="M210.083 115.102C327.239 78.7652 403.398 66.1886 495.948 68.6365C334.056 -14.0121 137.652 -21.1716 155.868 42.5753C161.852 63.5204 167.94 95.5825 173.435 134.093C184.01 128.055 196.013 121.852 210.083 115.102Z" fill="url(#paint12_linear)"/>
<path d="M210.083 115.102C327.239 78.7652 403.398 66.1886 495.948 68.6365C334.056 -14.0121 137.652 -21.1716 155.868 42.5753C161.852 63.5204 167.94 95.5825 173.435 134.093C184.01 128.055 196.013 121.852 210.083 115.102Z" fill="url(#paint13_linear)"/>
<path d="M210.083 115.102C327.239 78.7652 403.398 66.1886 495.948 68.6365C334.056 -14.0121 137.652 -21.1716 155.868 42.5753C161.852 63.5204 167.94 95.5825 173.435 134.093C184.01 128.055 196.013 121.852 210.083 115.102Z" fill="url(#paint14_linear)"/>
<path d="M318.512 234.421C267.313 232.298 225.443 234.704 185.725 243.32C200.594 415.376 198.952 622.018 144.573 620.454C103.092 619.261 211.487 672.245 344.44 672.902C274.884 521.132 239.82 426.482 318.512 234.421Z" fill="#969ABB"/>
<path d="M318.512 234.421C267.313 232.298 225.443 234.704 185.725 243.32C200.594 415.376 198.952 622.018 144.573 620.454C103.092 619.261 211.487 672.245 344.44 672.902C274.884 521.132 239.82 426.482 318.512 234.421Z" fill="url(#paint15_linear)"/>
<path d="M318.512 234.421C267.313 232.298 225.443 234.704 185.725 243.32C200.594 415.376 198.952 622.018 144.573 620.454C103.092 619.261 211.487 672.245 344.44 672.902C274.884 521.132 239.82 426.482 318.512 234.421Z" fill="url(#paint16_linear)"/>
<path d="M318.512 234.421C267.313 232.298 225.443 234.704 185.725 243.32C200.594 415.376 198.952 622.018 144.573 620.454C103.092 619.261 211.487 672.245 344.44 672.902C274.884 521.132 239.82 426.482 318.512 234.421Z" fill="url(#paint17_linear)"/>
<g filter="url(#filter0_di)">
<path d="M171.223 136.087C45.3571 207.856 51.1372 237.833 0 318.48C129.548 247.555 199.299 231.365 319.768 234.74C242.48 422.592 267.516 520.1 356.054 689C351.672 506.145 361.271 404.865 480.786 234.74L635 309.303C635 309.303 615.723 99.3796 594.179 83.3199C572.634 67.2601 531.812 72.9958 490.991 72.9958C450.17 72.9958 297.089 64.3193 171.223 136.087Z" fill="#5B89B8"/>
<path d="M171.223 136.087C45.3571 207.856 51.1372 237.833 0 318.48C129.548 247.555 199.299 231.365 319.768 234.74C242.48 422.592 267.516 520.1 356.054 689C351.672 506.145 361.271 404.865 480.786 234.74L635 309.303C635 309.303 615.723 99.3796 594.179 83.3199C572.634 67.2601 531.812 72.9958 490.991 72.9958C450.17 72.9958 297.089 64.3193 171.223 136.087Z" fill="url(#paint18_linear)"/>
<path d="M171.223 136.087C45.3571 207.856 51.1372 237.833 0 318.48C129.548 247.555 199.299 231.365 319.768 234.74C242.48 422.592 267.516 520.1 356.054 689C351.672 506.145 361.271 404.865 480.786 234.74L635 309.303C635 309.303 615.723 99.3796 594.179 83.3199C572.634 67.2601 531.812 72.9958 490.991 72.9958C450.17 72.9958 297.089 64.3193 171.223 136.087Z" fill="url(#paint19_linear)"/>
<path d="M171.223 136.087C45.3571 207.856 51.1372 237.833 0 318.48C129.548 247.555 199.299 231.365 319.768 234.74C242.48 422.592 267.516 520.1 356.054 689C351.672 506.145 361.271 404.865 480.786 234.74L635 309.303C635 309.303 615.723 99.3796 594.179 83.3199C572.634 67.2601 531.812 72.9958 490.991 72.9958C450.17 72.9958 297.089 64.3193 171.223 136.087Z" fill="url(#paint20_linear)"/>
</g>
</g>
<defs>
<filter id="filter0_di" x="-4" y="72" width="643" height="625" filterUnits="userSpaceOnUse" color-interpolation-filters="sRGB">
<feFlood flood-opacity="0" result="BackgroundImageFix"/>
<feColorMatrix in="SourceAlpha" type="matrix" values="0 0 0 0 0 0 0 0 0 0 0 0 0 0 0 0 0 0 127 0"/>
<feOffset dy="4"/>
<feGaussianBlur stdDeviation="2"/>
<feColorMatrix type="matrix" values="0 0 0 0 0 0 0 0 0 0 0 0 0 0 0 0 0 0 0.25 0"/>
<feBlend mode="normal" in2="BackgroundImageFix" result="effect1_dropShadow"/>
<feBlend mode="normal" in="SourceGraphic" in2="effect1_dropShadow" result="shape"/>
<feColorMatrix in="SourceAlpha" type="matrix" values="0 0 0 0 0 0 0 0 0 0 0 0 0 0 0 0 0 0 127 0" result="hardAlpha"/>
<feOffset dy="4"/>
<feGaussianBlur stdDeviation="2"/>
<feComposite in2="hardAlpha" operator="arithmetic" k2="-1" k3="1"/>
<feColorMatrix type="matrix" values="0 0 0 0 0 0 0 0 0 0 0 0 0 0 0 0 0 0 0.25 0"/>
<feBlend mode="normal" in2="shape" result="effect2_innerShadow"/>
</filter>
<linearGradient id="paint0_linear" x1="350" y1="0" x2="350" y2="700" gradientUnits="userSpaceOnUse">
<stop stop-color="white"/>
<stop offset="1" stop-color="white" stop-opacity="0"/>
</linearGradient>
<linearGradient id="paint1_linear" x1="350" y1="0" x2="350" y2="700" gradientUnits="userSpaceOnUse">
<stop stop-color="#159957"/>
<stop offset="1" stop-color="white" stop-opacity="0"/>
</linearGradient>
<linearGradient id="paint2_linear" x1="350" y1="0" x2="350" y2="700" gradientUnits="userSpaceOnUse">
<stop stop-color="#2CA368"/>
<stop offset="1" stop-color="white" stop-opacity="0"/>
</linearGradient>
<linearGradient id="paint3_linear" x1="350" y1="0" x2="350" y2="700" gradientUnits="userSpaceOnUse">
<stop stop-color="white"/>
<stop offset="1" stop-color="white" stop-opacity="0"/>
</linearGradient>
<linearGradient id="paint4_linear" x1="350" y1="0" x2="350" y2="700" gradientUnits="userSpaceOnUse">
<stop stop-color="#159957"/>
<stop offset="1" stop-color="white" stop-opacity="0"/>
</linearGradient>
<linearGradient id="paint5_linear" x1="350" y1="0" x2="350" y2="700" gradientUnits="userSpaceOnUse">
<stop stop-color="#2CA368"/>
<stop offset="1" stop-color="white" stop-opacity="0"/>
</linearGradient>
<linearGradient id="paint6_linear" x1="350" y1="0" x2="350" y2="700" gradientUnits="userSpaceOnUse">
<stop stop-color="white"/>
<stop offset="1" stop-color="white" stop-opacity="0"/>
</linearGradient>
<linearGradient id="paint7_linear" x1="350" y1="0" x2="350" y2="700" gradientUnits="userSpaceOnUse">
<stop stop-color="#159957"/>
<stop offset="1" stop-color="white" stop-opacity="0"/>
</linearGradient>
<linearGradient id="paint8_linear" x1="350" y1="0" x2="350" y2="700" gradientUnits="userSpaceOnUse">
<stop stop-color="#2CA368"/>
<stop offset="1" stop-color="white" stop-opacity="0"/>
</linearGradient>
<linearGradient id="paint9_linear" x1="350" y1="0" x2="350" y2="700" gradientUnits="userSpaceOnUse">
<stop stop-color="white"/>
<stop offset="1" stop-color="white" stop-opacity="0"/>
</linearGradient>
<linearGradient id="paint10_linear" x1="350" y1="0" x2="350" y2="700" gradientUnits="userSpaceOnUse">
<stop stop-color="#159957"/>
<stop offset="1" stop-color="white" stop-opacity="0"/>
</linearGradient>
<linearGradient id="paint11_linear" x1="350" y1="0" x2="350" y2="700" gradientUnits="userSpaceOnUse">
<stop stop-color="#2CA368"/>
<stop offset="1" stop-color="white" stop-opacity="0"/>
</linearGradient>
<linearGradient id="paint12_linear" x1="350" y1="0" x2="350" y2="700" gradientUnits="userSpaceOnUse">
<stop stop-color="white"/>
<stop offset="1" stop-color="white" stop-opacity="0"/>
</linearGradient>
<linearGradient id="paint13_linear" x1="350" y1="0" x2="350" y2="700" gradientUnits="userSpaceOnUse">
<stop stop-color="#159957"/>
<stop offset="1" stop-color="white" stop-opacity="0"/>
</linearGradient>
<linearGradient id="paint14_linear" x1="350" y1="0" x2="350" y2="700" gradientUnits="userSpaceOnUse">
<stop stop-color="#2CA368"/>
<stop offset="1" stop-color="white" stop-opacity="0"/>
</linearGradient>
<linearGradient id="paint15_linear" x1="350" y1="0" x2="350" y2="700" gradientUnits="userSpaceOnUse">
<stop stop-color="white"/>
<stop offset="1" stop-color="white" stop-opacity="0"/>
</linearGradient>
<linearGradient id="paint16_linear" x1="350" y1="0" x2="350" y2="700" gradientUnits="userSpaceOnUse">
<stop stop-color="#159957"/>
<stop offset="1" stop-color="white" stop-opacity="0"/>
</linearGradient>
<linearGradient id="paint17_linear" x1="350" y1="0" x2="350" y2="700" gradientUnits="userSpaceOnUse">
<stop stop-color="#2CA368"/>
<stop offset="1" stop-color="white" stop-opacity="0"/>
</linearGradient>
<linearGradient id="paint18_linear" x1="317.5" y1="72" x2="317.5" y2="689" gradientUnits="userSpaceOnUse">
<stop stop-color="#B9E0CD"/>
<stop offset="1" stop-color="white" stop-opacity="0"/>
</linearGradient>
<linearGradient id="paint19_linear" x1="317.5" y1="72" x2="317.5" y2="689" gradientUnits="userSpaceOnUse">
<stop stop-color="#155799"/>
<stop offset="1" stop-color="white" stop-opacity="0"/>
</linearGradient>
<linearGradient id="paint20_linear" x1="317.5" y1="72" x2="317.5" y2="689" gradientUnits="userSpaceOnUse">
<stop stop-color="#155799"/>
<stop offset="1" stop-color="white" stop-opacity="0"/>
</linearGradient>
<clipPath id="clip0">
<rect width="700" height="700" fill="white"/>
</clipPath>
</defs>
</svg>
